<svg xmlns="http://www.w3.org/2000/svg" width="1925" height="747"><path fill="#EDEDED" paint-order="stroke fill markers" fill-rule="evenodd" d="M60.046 49.176l-1.67-1.578 1.813 1.393 5.19-6.712 30.49-28.824L126.5 42.437l4.26 5.533 48.615-45.994h2.206l-49.89 47.2.745.962L95.87 15.543 59.3 50.142l.747-.966zm-49.888-47.2h2.205l46.603 44.092-.931 1.206L10.158 1.976zm85.711 80.852l-73.438 69.48-.931-1.207 74.369-70.362 74.37 70.362-.932 1.206-73.438-69.48zM81.595 228.812l14.274-13.507 14.274 13.507-.931 1.204-13.343-12.622-13.343 12.623-.931-1.205zm-30.047-38.857l44.321-41.933 44.322 41.933-.931 1.206-43.391-41.05-43.39 41.05-.931-1.206zm44.321-6.203L67.502 210.59l-.931-1.206 29.298-27.719 29.298 27.719-.931 1.206-28.367-26.837zm0-134.566L7.407 132.879l-.931-1.206 89.393-84.576 89.393 84.576-.933 1.206-88.46-83.693zm21.878-22.545l26.07-24.665h2.206l-27.344 25.87-.932-1.205zM102.722 7.213l5.536-5.237h2.207l-6.809 6.444-.934-1.207zm89.384 52.09L163.752 86.13l-.932-1.206 29.203-27.63.014.016.084-.081 29.271 27.695-.933 1.206-28.353-26.826zm-74.359 216.258l74.359-70.35 74.357 70.35-.932 1.205-73.425-69.467-73.427 69.467-.932-1.205zm-15.024-19.427l89.383-84.566 89.381 84.566-.932 1.205-88.449-83.682-88.45 83.682-.933-1.205zM491521 94.239V92.15L13.895 104.35l-.933 1.207L491521 94.239zm0-67.283v-2.09L43.941 65.496l-.932 1.206L491521 26.956zm0 33.641v-2.09L28.92 84.924l-.933 1.206L491521 60.597zM81.273 1.977h2.207l5.535 5.236-.932 1.205-6.81-6.442zm-35.559 0h2.207L73.989 26.64l-.931 1.205-27.344-25.87zM491521 174.95v-2.088L89.015 256.134l-.932 1.204L491521 174.95zm0 33.642v-2.089L73.99 275.561l-.932 1.205L491521 208.592zM252.519 49.176l-1.672-1.581 1.815 1.397 5.191-6.712 30.49-28.825 30.631 28.982 4.26 5.533 48.615-45.994h2.206l-49.89 47.2.745.962-36.567-34.595-36.573 34.6.749-.967zm-49.888-47.2h2.206l46.602 44.092-.932 1.206-47.876-45.298zm85.712 80.852l-73.438 69.48-.931-1.207 74.369-70.362 74.37 70.362-.934 1.206-73.436-69.48zm-14.274 145.984l14.274-13.507 14.273 13.507-.932 1.205-13.341-12.623L275 230.017l-.931-1.205zm14.274-78.702l-43.39 41.051-.933-1.206 44.323-41.933 44.322 41.933-.933 1.206-43.39-41.05zm-29.299 59.273l29.299-27.719 29.298 27.719-.932 1.205-28.366-26.836-28.367 26.837-.932-1.206zm29.299-160.197l-88.462 83.693-.931-1.206 89.393-84.576 89.393 84.576-.933 1.206-88.46-83.693zM310.22 26.64l26.07-24.664h2.206l-27.343 25.87-.932-1.205zM295.196 7.213l5.536-5.237h2.207l-6.81 6.444-.933-1.207zm89.384 52.09L356.225 86.13l-.931-1.206 29.26-27.685.072.071.025-.027 29.215 27.641-.933 1.206-28.353-26.826zm-74.36 216.259l74.358-70.35 74.358 70.35-.932 1.205L384.58 207.3l-73.427 69.467-.932-1.205zm-15.024-19.427l89.382-84.566 89.38 84.566-.928 1.204-88.451-83.68-88.451 83.681-.932-1.205zM177.844 104.352l14.262-13.495 14.262 13.494-.932 1.206-13.33-12.611-13.33 12.61-.932-1.204zm-30.048-38.856l44.225-41.842.016.018.085-.084 44.293 41.908-.932 1.206-43.377-41.04-43.379 41.04-.931-1.206zm125.951-63.52h2.205l5.535 5.237-.932 1.207-6.808-6.444zm-35.559 0h2.207l26.068 24.665-.932 1.205-27.343-25.87zm206.803 47.2l-1.675-1.584 1.818 1.4 5.192-6.712 30.49-28.825 30.632 28.982 4.26 5.533 48.614-45.994h2.206l-49.889 47.2.75.967-36.574-34.6-36.575 34.604.751-.97zm-49.887-47.2h2.206l46.601 44.092-.931 1.206-47.876-45.298zm85.711 80.852l-73.437 69.48-.932-1.207 74.37-70.362 74.37 70.36-.935 1.208-73.436-69.48zm0 134.566l-13.342 12.623-.932-1.205 14.274-13.507 14.275 13.507-.932 1.205-13.343-12.623zm0-67.284l-43.39 41.051-.932-1.206 44.322-41.933 44.323 41.933-.932 1.206-43.39-41.05zm-29.297 59.273l29.297-27.719 29.297 27.719-.929 1.205-28.368-26.836-28.365 26.837-.932-1.206zm-60.096-77.71l89.393-84.576 89.394 84.576-.932 1.206-88.462-83.693-88.46 83.693-.933-1.206zM502.694 26.64l26.068-24.665h2.208l-27.344 25.87-.932-1.205zM487.67 7.213l5.534-5.237h2.208l-6.81 6.444-.932-1.207zm89.383 52.09L548.699 86.13l-.932-1.206 29.287-27.709 29.286 27.707-.935 1.208-28.351-26.826zm-74.36 216.258l74.357-70.35 74.36 70.35-.932 1.205-73.425-69.467-73.428 69.467-.932-1.205zm74.36-101.904l-88.451 83.682-.932-1.205 89.383-84.566 89.38 84.566-.932 1.205-88.448-83.682zM384.58 92.946l-13.332 12.61-.93-1.204 14.262-13.495 14.262 13.494-.932 1.206-13.33-12.611zm-44.31-27.45l44.283-41.897.073.073.026-.029 44.237 41.853-.932 1.206-43.377-41.04-43.379 41.04-.932-1.206zm125.95-63.52h2.206l5.534 5.237-.93 1.205-6.81-6.442zm-35.56 0h2.209l26.068 24.665-.932 1.205-27.344-25.87zm206.805 47.2l-1.675-1.585 1.818 1.4 5.189-6.712 30.492-28.824 30.633 28.982 4.26 5.533 48.614-45.994h2.206l-49.889 47.2.749.967-36.573-34.6-36.575 34.604.751-.97zm-49.888-47.2h2.208l46.6 44.092-.931 1.206-47.877-45.298zm85.712 80.852l-73.436 69.48-.932-1.207 74.368-70.362 74.37 70.36-.933 1.208-73.437-69.48zm0 134.566l-13.342 12.623-.932-1.205 14.274-13.507 14.274 13.507-.931 1.205-13.343-12.623zm-44.322-27.439l44.322-41.933 44.323 41.933-.932 1.206-43.39-41.05-43.391 41.05-.932-1.206zm15.025 19.428l29.297-27.719 29.297 27.719-.931 1.206-28.366-26.837-28.365 26.837-.932-1.206zM673.29 49.186l-88.461 83.693-.932-1.206 89.393-84.576 89.394 84.576-.932 1.206-88.462-83.693zm21.879-22.545l26.068-24.665h2.208L696.1 27.846l-.931-1.205zM680.145 7.213l5.534-5.237h2.208l-6.81 6.444-.932-1.207zm89.383 52.09L741.173 86.13l-.932-1.206 29.287-27.709 29.283 27.709-.932 1.206-28.351-26.826zm-74.36 216.258l74.357-70.35 74.357 70.35-.93 1.204-73.424-69.466-73.429 69.467-.931-1.205zm74.36-101.904l-88.451 83.682-.932-1.205 89.38-84.566 89.382 84.566-.931 1.205-88.448-83.682zM562.79 104.352l14.264-13.495 14.26 13.494-.931 1.206-13.33-12.611-13.331 12.61-.932-1.204zm-30.048-38.856l44.312-41.923 44.308 41.923-.931 1.206-43.377-41.04-43.38 41.04-.932-1.206zm125.95-63.52h2.208l5.534 5.237-.932 1.207-6.81-6.444zm-35.558 0h2.206l26.07 24.665-.93 1.205-27.346-25.87zm206.805 47.2l-1.675-1.585 1.818 1.4 5.189-6.712 30.492-28.824 30.633 28.982 4.26 5.533L949.27 1.976h2.205l-49.888 47.2.749.967-36.573-34.6-36.575 34.604.751-.97zm-49.888-47.2h2.205l46.603 44.092-.931 1.206L780.05 1.976zm85.712 80.852l-73.439 69.48-.931-1.207 74.37-70.362 74.37 70.36-.934 1.208-73.436-69.48zm0 134.566l-13.342 12.623-.932-1.205 14.274-13.507 14.274 13.507-.931 1.205-13.343-12.623zm0-67.284l-43.39 41.051-.932-1.206 44.322-41.933 44.323 41.933-.932 1.206-43.39-41.05zm-29.297 59.273l29.297-27.719 29.297 27.719-.932 1.206-28.365-26.837-28.365 26.837-.932-1.206zm29.297-160.197l-88.462 83.693-.931-1.206 89.393-84.576 89.394 84.576-.932 1.206-88.462-83.693zm21.879-22.545L913.71 1.976h2.208l-27.345 25.87-.931-1.205zM872.619 7.213l5.533-5.237h2.208l-6.81 6.444-.931-1.207zm89.38 52.09L933.644 86.13l-.929-1.205 29.286-27.709 29.284 27.709-.932 1.206L962 59.304zm-74.357 216.258l74.357-70.35 74.357 70.35-.932 1.205-73.425-69.467-73.426 69.467-.931-1.205zm74.357-101.904L873.55 257.34l-.932-1.205 89.38-84.566 89.382 84.566-.931 1.205-88.451-83.682zm-206.735-69.305l14.264-13.495 14.26 13.494-.931 1.206-13.33-12.611-13.331 12.61-.932-1.204zm-30.048-38.856l44.309-41.923 44.311 41.923-.931 1.206-43.377-41.04-43.38 41.04-.932-1.206zm125.95-63.52h2.208l5.533 5.237-.931 1.207-6.81-6.444zm-35.558 0h2.206l26.068 24.665-.93 1.204-27.344-25.869zm206.805 47.2l-1.675-1.585 1.817 1.4 5.19-6.712 30.492-28.824 30.632 28.982 4.258 5.533 48.614-45.994h2.208l-49.888 47.2.749.967-36.573-34.6-36.575 34.604.75-.97zm-49.888-47.2h2.205l46.603 44.092-.932 1.206-47.876-45.298zm11.341 149.125l74.371-70.362 74.368 70.362-.932 1.206-73.436-69.48-73.439 69.48-.932-1.206zm74.371 66.293l-13.343 12.623-.931-1.205 14.274-13.507 14.274 13.507-.932 1.205-13.342-12.623zm-44.322-27.439l44.322-41.933 44.322 41.934-.931 1.205-43.391-41.05-43.39 41.05-.932-1.206zm15.022 19.427l29.3-27.718 29.297 27.719-.932 1.206-28.365-26.837-28.365 26.837-.935-1.207zm29.3-160.196l-88.462 83.693-.932-1.206 89.394-84.576 89.393 84.576-.931 1.206-88.462-83.693zm21.878-22.545l26.069-24.665h2.208l-27.345 25.87-.932-1.205zM1065.09 7.212l5.536-5.236h2.208l-6.81 6.444-.934-1.208zm89.382 52.092l-28.354 26.826-.932-1.206 29.286-27.709 29.287 27.709-.932 1.206-28.355-26.826zm-74.357 216.257l74.357-70.35 74.358 70.35-.932 1.205-73.426-69.467-73.425 69.467-.932-1.205zm74.357-101.904l-88.448 83.682-.934-1.207 89.382-84.564 89.383 84.566-.931 1.205-88.452-83.682zm-206.734-69.305l14.263-13.495 14.261 13.494-.932 1.206L962 92.946l-13.33 12.61-.93-1.204zM917.69 65.496l44.309-41.923 44.309 41.923-.93 1.205-43.38-41.039-43.376 41.04-.932-1.206zm125.95-63.52h2.208l5.533 5.237-.931 1.207-6.81-6.444zm-35.558 0h2.205l26.069 24.665-.932 1.205-27.342-25.87zm206.805 47.2l-49.889-47.2h2.206l48.615 45.994 4.4-5.69 30.492-28.825 30.632 28.982 4.258 5.533 48.614-45.994h2.208l-49.89 47.2.74.958-36.562-34.591-36.576 34.604.752-.97zm-38.547 101.925l74.37-70.362 74.369 70.362-.932 1.206-73.436-69.48-73.44 69.48-.93-1.206zm60.097 77.71l14.274-13.506 14.271 13.507-.929 1.204-13.342-12.622-13.343 12.623-.931-1.205zm14.274-78.7l-43.39 41.05-.932-1.206 44.322-41.933 44.32 41.933-.932 1.206-43.388-41.05zm-29.3 59.272l29.3-27.719 29.297 27.719-.932 1.206-28.365-26.837-28.368 26.837-.932-1.206zm29.3-160.197l-88.462 83.693-.931-1.206 89.393-84.576 89.393 84.574-.934 1.208-88.46-83.693zm21.878-22.545l26.069-24.665h2.205l-27.342 25.87-.932-1.205zm-15.025-19.428l5.536-5.237h2.205l-6.81 6.444-.931-1.207zm89.382 52.09l-28.354 26.827-.932-1.206 29.203-27.63.073.082.083-.091 29.214 27.639-.932 1.206-28.355-26.826zm-74.357 216.258l74.333-70.327.014.015.024-.024 74.343 70.336-.931 1.205-73.426-69.467-73.425 69.467-.932-1.205zm74.357-101.904l-88.45 83.682-.932-1.205 89.358-84.542.014.015.024-.024 89.37 84.55-.933 1.206-88.45-83.682zm-206.734-69.305l14.263-13.495 14.261 13.494-.932 1.206-13.332-12.611-13.328 12.61-.932-1.204zm14.26-78.69l-43.377 41.04-.931-1.206 44.308-41.923 44.31 41.923-.932 1.206-43.378-41.04zm81.641-23.686h2.206l5.536 5.237-.931 1.207-6.81-6.444zm-35.557 0h2.205l26.069 24.665-.932 1.205-27.342-25.87zm242.626 13.567l-36.564 34.595.743-.962-49.889-47.2h2.206l48.614 45.994 4.4-5.69 30.49-28.825 30.635 28.982 4.257 5.533 48.615-45.994h2.208l-49.89 47.2.748.967-36.573-34.6zm0 67.285l-73.436 69.48-.932-1.207 74.368-70.362 74.37 70.362-.931 1.206-73.44-69.48zm0 134.566l-13.343 12.622-.929-1.204 14.272-13.507 14.274 13.507-.931 1.205-13.343-12.623zm0-67.284l-43.388 41.051-.932-1.206 44.32-41.933 44.322 41.933-.931 1.206-43.391-41.05zm0 33.642l-28.365 26.837-.932-1.206 29.297-27.719 29.3 27.719-.932 1.206-28.368-26.837zm0-134.566l-88.459 83.693-.934-1.208 89.393-84.574 89.396 84.574-.934 1.208-88.462-83.693zm21.881-22.545l26.069-24.665h2.205l-27.345 25.869-.929-1.204zm-15.025-19.428l5.536-5.237h2.205l-6.81 6.444-.931-1.207zm89.382 52.09l-28.354 26.827-.932-1.206 29.203-27.63.073.082.083-.091 29.214 27.639-.932 1.206-28.355-26.826zm0 147.996l-73.428 69.466-.929-1.204 74.333-70.327.014.015.024-.024 74.344 70.336-.932 1.205-73.426-69.467zm0-33.642l-88.45 83.682-.932-1.205 89.358-84.542.014.015.024-.024 89.369 84.55-.932 1.206-88.45-83.682zm-206.734-69.305l14.234-13.47.016.015.024-.025 14.25 13.479-.932 1.206-13.332-12.611-13.329 12.61-.931-1.204zm14.26-78.69l-43.377 41.04-.931-1.206 44.225-41.842.073.083.083-.094 44.236 41.853-.931 1.206-43.378-41.04zm81.641-23.686h2.206l5.536 5.237-.932 1.207-6.81-6.444zm-35.557 0h2.205l26.068 24.665-.931 1.205-27.342-25.87zM95.869 331.748l-73.438 69.479-.931-1.206 74.369-70.362 74.37 70.362-.932 1.206-73.438-69.48zM81.595 477.732l14.274-13.507 14.274 13.507-.931 1.205-13.343-12.623-13.343 12.624-.931-1.206zm-30.047-38.857l44.321-41.932 44.322 41.932-.931 1.207-43.391-41.052-43.39 41.052-.931-1.207zm44.321-6.203L67.502 459.51l-.931-1.207 29.298-27.719 29.298 27.72-.931 1.206-28.367-26.838zm0-134.566L7.407 381.799l-.931-1.206 89.393-84.576 89.393 84.576-.933 1.206-88.46-83.693zm96.237 43.76l-13.33 12.611-.932-1.206 14.262-13.494 14.262 13.494-.932 1.206-13.33-12.611zm0-67.284l-43.379 41.039-.931-1.205 44.31-41.922 44.309 41.922-.932 1.206-43.377-41.04zm0 33.642l-28.354 26.825-.932-1.205 29.286-27.709 29.286 27.708-.933 1.207-28.353-26.826zM117.747 524.48l74.359-70.35 74.357 70.35-.932 1.205-73.425-69.467-73.427 69.467-.932-1.205zm-15.025-19.427l89.384-84.566 89.381 84.566-.932 1.206-88.449-83.683-88.45 83.683-.934-1.206zM491521 343.159v-2.088L13.895 353.27l-.933 1.206L491521 343.16zm0-67.283v-2.09L43.941 314.417l-.932 1.206L491521 275.876zm0 33.642v-2.09L28.918 333.845l-.931 1.205L491521 309.518zm0 114.352v-2.088L89.015 505.054l-.932 1.204L491521 423.87zm0 33.642v-2.089L73.99 524.481l-.932 1.205L491521 457.512zM288.343 331.748l-73.438 69.479-.931-1.206 74.369-70.362 74.37 70.362-.934 1.206-73.436-69.48zm-14.274 145.984l14.274-13.507 14.273 13.507-.932 1.206-13.341-12.624L275 478.938l-.931-1.206zm14.274-78.702l-43.39 41.052-.933-1.207 44.323-41.932 44.322 41.932-.933 1.207-43.39-41.052zm-29.299 59.273l29.299-27.719 29.298 27.72-.932 1.204-28.366-26.836-28.367 26.838-.932-1.207zm29.299-160.197l-88.462 83.693-.931-1.206 89.393-84.576 89.393 84.576-.933 1.206-88.46-83.693zm96.237 43.76l-13.332 12.611-.932-1.206 14.264-13.494 14.262 13.494-.932 1.206-13.33-12.611zm0-67.284L341.2 315.62l-.932-1.205 44.31-41.922 44.31 41.922-.932 1.206-43.377-41.04zm0 33.642l-28.355 26.825-.931-1.205 29.286-27.709 29.286 27.709-.933 1.206-28.353-26.826zM310.22 524.48l74.358-70.35 74.358 70.35-.932 1.205-73.425-69.467-73.427 69.467-.932-1.205zm-15.025-19.427l89.383-84.566 89.38 84.566-.928 1.204-88.451-83.68-88.451 83.682-.933-1.206zm185.62-173.306l-73.438 69.479-.932-1.206 74.37-70.362 74.37 70.36-.935 1.208-73.436-69.48zm0 134.566l-13.343 12.624-.932-1.206 14.274-13.507 14.275 13.507-.932 1.206-13.343-12.624zm0-67.284l-43.391 41.052-.932-1.207 44.322-41.932 44.323 41.932-.932 1.207-43.39-41.052zm-29.298 59.273l29.297-27.719 29.297 27.72-.929 1.204-28.368-26.836-28.365 26.838-.932-1.207zm-60.096-77.71l89.393-84.576 89.394 84.576-.932 1.206-88.462-83.693-88.46 83.693-.933-1.206zm171.368-27.322l14.264-13.494 14.26 13.494-.931 1.206-13.33-12.611-13.331 12.611-.932-1.206zm14.264-78.69l-43.38 41.04-.932-1.205 44.312-41.922 44.308 41.922-.931 1.206-43.377-41.04zm0 33.643l-28.355 26.825-.932-1.205 29.287-27.709 29.286 27.708-.935 1.207-28.351-26.826zm-74.36 216.257l74.357-70.35 74.36 70.35-.932 1.205-73.425-69.467-73.428 69.467-.932-1.205zm-15.023-19.427l89.383-84.566 89.38 84.566-.932 1.206-88.448-83.683-88.451 83.683-.932-1.206zm185.62-173.305l-73.436 69.479-.932-1.206 74.368-70.362 74.37 70.36-.933 1.208-73.437-69.48zm0 134.566l-13.342 12.624-.932-1.206 14.274-13.507 14.274 13.507-.931 1.206-13.343-12.624zm-44.322-27.439l44.322-41.932 44.323 41.932-.932 1.207-43.39-41.052-43.391 41.052-.932-1.207zm15.025 19.428l29.297-27.719 29.297 27.72-.931 1.206-28.366-26.838-28.365 26.838-.932-1.207zm29.297-160.197l-88.461 83.693-.932-1.206 89.393-84.576 89.394 84.576-.932 1.206-88.462-83.693zm81.975 55.165l14.26-13.494 14.264 13.494-.931 1.206-13.33-12.611-13.331 12.611-.932-1.206zm14.264-78.69l-43.38 41.04-.932-1.205 44.309-41.922 44.311 41.922-.931 1.206-43.377-41.04zm0 33.643l-28.355 26.825-.932-1.205 29.287-27.709 29.283 27.709-.932 1.205-28.351-26.825zm-74.36 216.257l74.357-70.35 74.357 70.35-.93 1.204-73.424-69.466-73.429 69.467-.931-1.205zm-15.023-19.427l89.38-84.566 89.382 84.566-.931 1.206-88.448-83.683-88.451 83.683-.932-1.206zm185.618-173.306l-73.439 69.479-.931-1.206 74.37-70.362 74.37 70.36-.934 1.208-73.436-69.48zm0 134.566l-13.342 12.624-.932-1.206 14.274-13.507 14.274 13.507-.931 1.206-13.343-12.624zm0-67.284l-43.39 41.052-.932-1.207 44.322-41.932 44.323 41.932-.932 1.207-43.39-41.052zm-29.297 59.273l29.297-27.719 29.297 27.72-.932 1.206-28.365-26.838-28.365 26.838-.932-1.207zm29.297-160.197l-88.462 83.693-.931-1.206 89.393-84.576 89.394 84.576-.932 1.206-88.462-83.693zM962 341.866l-13.33 12.611-.93-1.206L962 339.777l14.261 13.494-.932 1.206L962 341.866zm0-67.284l-43.377 41.039-.932-1.205L962 272.494l44.309 41.922-.93 1.205-43.38-41.04zm0 33.642l-28.355 26.823-.929-1.203 29.286-27.709 29.284 27.709-.932 1.205L962 308.224zM887.642 524.48l74.357-70.35 74.357 70.35-.932 1.205-73.425-69.467-73.426 69.467-.931-1.205zm-15.023-19.427l89.38-84.566 89.382 84.566-.931 1.206-88.451-83.683-88.448 83.683-.932-1.206zM983.866 400.02l74.371-70.362 74.368 70.362-.932 1.206-73.436-69.48-73.439 69.48-.932-1.206zm74.371 66.293l-13.343 12.624-.931-1.206 14.274-13.507 14.274 13.507-.932 1.206-13.342-12.624zm-44.322-27.439l44.322-41.932 44.322 41.934-.931 1.205-43.391-41.052-43.39 41.052-.932-1.207zm15.022 19.427l29.3-27.718 29.297 27.72-.932 1.206-28.365-26.838-28.365 26.838-.935-1.208zm29.3-160.196l-88.462 83.693-.932-1.206 89.394-84.576 89.393 84.576-.931 1.206-88.462-83.693zm96.235 43.76l-13.328 12.611-.932-1.206 14.26-13.494 14.264 13.494-.932 1.206-13.332-12.611zm0-67.284l-43.377 41.039-.931-1.205 44.308-41.922 44.31 41.922-.932 1.206-43.378-41.04zm0 33.642l-28.354 26.825-.932-1.205 29.286-27.709 29.287 27.709-.932 1.205-28.355-26.825zm-74.357 216.257l74.357-70.35 74.358 70.35-.932 1.205-73.426-69.467-73.425 69.467-.932-1.205zm-15.025-19.429l89.382-84.564 89.383 84.566-.931 1.206-88.452-83.683-88.448 83.683-.934-1.208zm111.25-105.031l74.37-70.362 74.369 70.362-.932 1.206-73.436-69.48-73.44 69.48-.93-1.206zm60.097 77.71l14.274-13.506 14.271 13.507-.929 1.205-13.342-12.623-13.343 12.624-.931-1.206zm14.274-78.7l-43.39 41.05-.932-1.206 44.322-41.932 44.32 41.932-.932 1.207-43.388-41.052zm-29.3 59.272l29.3-27.719 29.297 27.72-.932 1.206-28.365-26.838-28.368 26.838-.932-1.207zm29.3-160.197l-88.462 83.693-.931-1.206 89.393-84.576 89.393 84.574-.934 1.208-88.46-83.693zm96.235 43.76l-13.329 12.611-.931-1.206 14.234-13.468.016.015.024-.026 14.25 13.479-.932 1.206-13.332-12.611zm0-67.284l-43.377 41.039-.931-1.205 44.284-41.898.014.015.024-.024 44.295 41.907-.931 1.206-43.378-41.04zm0 33.642l-28.354 26.825-.932-1.205 29.262-27.685.014.013.024-.023 29.273 27.695-.932 1.205-28.355-26.825zM1272.59 524.48l74.333-70.327.014.015.024-.024 74.343 70.336-.931 1.205-73.426-69.467-73.425 69.467-.932-1.205zm-15.025-19.427l89.358-84.541.014.014.024-.024 89.37 84.55-.933 1.207-88.45-83.683-88.452 83.683-.931-1.206zm185.618-173.306l-73.436 69.479-.932-1.206 74.368-70.362 74.37 70.362-.931 1.206-73.44-69.48zm0 134.566l-13.343 12.623-.929-1.205 14.272-13.507 14.274 13.507-.931 1.206-13.343-12.624zm0-67.284l-43.388 41.052-.932-1.207 44.32-41.932 44.322 41.932-.931 1.207-43.391-41.052zm0 33.642l-28.365 26.838-.932-1.207 29.297-27.719 29.3 27.72-.932 1.206-28.368-26.838zm0-134.566l-88.459 83.693-.934-1.208 89.393-84.574 89.396 84.574-.934 1.208-88.462-83.693zm96.238 43.76l-13.331 12.61-.93-1.205 14.237-13.47.014.015.024-.024 14.25 13.479-.932 1.206-13.332-12.611zm0-67.284l-43.377 41.039-.932-1.205 44.285-41.898.014.015.024-.024 44.295 41.907-.931 1.206-43.378-41.04zm0 33.642l-28.354 26.825-.932-1.205 29.262-27.685.014.013.024-.023 29.273 27.695-.932 1.205-28.355-26.825zm0 147.995l-73.428 69.466-.929-1.204 74.333-70.327.014.015.024-.024 74.344 70.336-.932 1.205-73.426-69.467zm-89.382 48.835l89.358-84.541.014.014.024-.024 89.369 84.55-.932 1.207-88.45-83.683-88.452 83.683-.931-1.206zM95.869 580.668l-73.438 69.48-.931-1.207 74.369-70.362 74.37 70.362-.932 1.206-73.438-69.48zM81.595 726.652l14.274-13.506 14.274 13.506-.931 1.205-13.343-12.623-13.343 12.624-.931-1.206zm-30.047-38.856l44.321-41.933 44.322 41.933-.931 1.206-43.391-41.051L52.479 689l-.931-1.205zm44.321-6.204L67.502 708.43l-.931-1.207 29.298-27.719 29.298 27.72-.931 1.206-28.367-26.838zm0-134.566L7.407 630.72l-.931-1.206 89.393-84.576 89.393 84.576-.933 1.206-88.46-83.693zm81.975 55.167l14.262-13.496 14.262 13.494-.932 1.206-13.33-12.611-13.33 12.611-.932-1.204zm-30.048-38.857l44.225-41.842.016.018.085-.083 44.293 41.907-.932 1.206-43.377-41.04-43.379 41.04-.931-1.206zm44.31-6.192l-28.354 26.826-.932-1.206 29.203-27.63.014.017.084-.082 29.271 27.695-.933 1.206-28.353-26.826zm43.173 188.841l-43.173-40.846-43.173 40.846h-2.208l45.381-42.935 45.38 42.935h-2.207zm-35.558 0l-7.615-7.204-7.615 7.204h-2.207l9.822-9.293 9.822 9.293h-2.207zm71.116 0l-78.731-74.487-78.732 74.487h-2.206l80.938-76.577 80.938 76.577h-2.207zM491521 592.08v-2.09L13.895 602.191l-.933 1.206L491521 592.08zm0-67.284v-2.09L43.941 563.336l-.932 1.206L491521 524.796zm0 33.642v-2.09L28.92 582.763l-.933 1.206L491521 558.438zM78.364 745.985L491521 672.791v-2.089L80.57 745.985h-2.206zm-71.117 0L491521 740.075v-2.09l-491511.545 8H7.247zm35.558 0L491521 706.432v-2.088L45.013 745.985h-2.208zm245.538-165.317l-73.438 69.48-.931-1.207 74.369-70.362 74.37 70.362-.934 1.206-73.436-69.48zm-14.274 145.984l14.274-13.506 14.273 13.506-.932 1.206-13.341-12.624L275 727.858l-.931-1.206zm14.274-78.701L244.953 689l-.933-1.205 44.323-41.933 44.322 41.933-.933 1.206-43.39-41.051zm-29.299 59.272l29.299-27.719 29.298 27.72-.932 1.204-28.366-26.836-28.367 26.838-.932-1.207zm29.299-160.197L199.88 630.72l-.931-1.206 89.393-84.576 89.393 84.576-.933 1.206-88.46-83.693zm96.237 43.76l-13.332 12.611-.93-1.204 14.262-13.496 14.262 13.494-.932 1.206-13.33-12.611zm-44.31-27.45l44.283-41.897.073.073.026-.029 44.237 41.853-.932 1.206-43.377-41.04-43.379 41.04-.932-1.206zm44.31-6.192l-28.355 26.826-.931-1.206 29.26-27.684.072.07.025-.026 29.215 27.64-.933 1.206-28.353-26.826zm43.172 188.841L384.58 705.14l-43.174 40.846h-2.207l45.38-42.935 45.379 42.935h-2.206zm-35.557 0l-7.615-7.204-7.615 7.204h-2.207l9.822-9.293 9.822 9.293h-2.207zm71.115 0l-78.73-74.487-78.732 74.487h-2.208l80.94-76.577 80.938 76.577h-2.208zm17.505-165.317l-73.437 69.48-.932-1.207 74.37-70.362 74.37 70.36-.935 1.208-73.436-69.48zm0 134.566l-13.342 12.624-.932-1.206 14.274-13.506 14.275 13.506-.932 1.206-13.343-12.624zm0-67.283L437.425 689l-.932-1.205 44.322-41.933 44.323 41.933-.932 1.206-43.39-41.051zm-29.297 59.272l29.297-27.719 29.297 27.72-.929 1.204-28.368-26.836-28.365 26.838-.932-1.207zm-60.096-77.71l89.393-84.576 89.394 84.576-.932 1.206-88.462-83.693-88.46 83.693-.933-1.206zm171.368-27.32l14.264-13.496 14.26 13.494-.931 1.206-13.33-12.611-13.331 12.611-.932-1.204zm-30.048-38.857l44.312-41.922 44.308 41.922-.931 1.206-43.377-41.04-43.38 41.04-.932-1.206zm44.312-6.192l-28.355 26.826-.932-1.206 29.287-27.708 29.286 27.707-.935 1.207-28.351-26.826zm43.172 188.841l-43.172-40.846-43.176 40.846h-2.205l45.38-42.935 45.379 42.935h-2.206zm-35.557 0l-7.615-7.204-7.615 7.204h-2.208l9.823-9.293 9.82 9.293h-2.205zm71.115 0l-78.73-74.487-78.733 74.487h-2.208l80.94-76.577 80.939 76.577h-2.208zm17.505-165.317l-73.436 69.48-.932-1.207 74.368-70.362 74.37 70.36-.933 1.208-73.437-69.48zm0 134.566l-13.342 12.624-.932-1.206 14.274-13.506 14.274 13.506-.931 1.206-13.343-12.624zm-44.322-27.438l44.322-41.933 44.323 41.933-.932 1.206-43.39-41.051L629.898 689l-.932-1.205zm15.025 19.427l29.297-27.719 29.297 27.72-.931 1.206-28.366-26.838-28.365 26.838-.932-1.207zm29.297-160.197l-88.461 83.693-.932-1.206 89.393-84.576 89.394 84.576-.932 1.206-88.462-83.693zm81.975 55.167l14.264-13.496 14.26 13.494-.931 1.206-13.33-12.611-13.331 12.611-.932-1.204zm-30.048-38.857l44.309-41.922 44.311 41.922-.931 1.206-43.377-41.04-43.38 41.04-.932-1.206zm44.312-6.192l-28.355 26.826-.932-1.206 29.287-27.708 29.283 27.708-.932 1.206-28.351-26.826zM812.7 745.985l-43.172-40.846-43.176 40.846h-2.205l45.378-42.935 45.38 42.935H812.7zm-35.56 0l-7.612-7.204-7.615 7.204h-2.208l9.82-9.293 9.823 9.293h-2.208zm71.118 0l-78.73-74.487-78.733 74.487h-2.208l80.938-76.577 80.94 76.577h-2.207zm17.505-165.317l-73.439 69.48-.931-1.207 74.37-70.362 74.37 70.36-.934 1.208-73.436-69.48zm0 134.566l-13.342 12.624-.932-1.206 14.274-13.506 14.274 13.506-.931 1.206-13.343-12.624zm0-67.283L822.373 689l-.932-1.205 44.322-41.933 44.323 41.933-.932 1.206-43.39-41.051zm-29.297 59.272l29.297-27.719 29.297 27.72-.932 1.206-28.365-26.838-28.365 26.838-.932-1.207zm29.297-160.197l-88.462 83.693-.931-1.206 89.393-84.576 89.394 84.576-.932 1.206-88.462-83.693zm81.975 55.167l14.263-13.496 14.261 13.494-.932 1.206L962 590.786l-13.33 12.611-.93-1.204zm-30.048-38.857l44.309-41.922 44.309 41.922-.93 1.205-43.38-41.038-43.376 41.04-.932-1.207zm44.309-6.192l-28.355 26.825-.929-1.205 29.286-27.708 29.284 27.708-.932 1.206L962 557.144zm43.172 188.841L962 705.14l-43.173 40.846h-2.208l45.38-42.935 45.381 42.935h-2.208zm-35.557 0L962 738.781l-7.615 7.204h-2.208l9.823-9.293 9.82 9.293h-2.207zm71.117 0L962 671.498l-78.73 74.487h-2.208L962 669.408l80.938 76.577h-2.206zm-56.865-97.044l74.371-70.362 74.368 70.362-.932 1.206-73.436-69.48-73.439 69.48-.932-1.206zm74.371 66.293l-13.343 12.624-.931-1.206 14.274-13.506 14.274 13.506-.932 1.206-13.342-12.624zm-44.322-27.438l44.322-41.933 44.322 41.934-.931 1.205-43.391-41.051-43.39 41.05-.932-1.205zm15.022 19.426l29.3-27.718 29.297 27.72-.932 1.206-28.365-26.838-28.365 26.838-.935-1.208zm29.3-160.196l-88.462 83.693-.932-1.206 89.394-84.576 89.393 84.576-.931 1.206-88.462-83.693zm81.975 55.167l14.263-13.496 14.261 13.494-.932 1.206-13.332-12.611-13.328 12.611-.932-1.204zm14.26-78.69l-43.377 41.04-.931-1.207 44.308-41.922 44.31 41.922-.932 1.206-43.378-41.04zm0 33.64l-28.354 26.827-.932-1.206 29.286-27.708 29.287 27.708-.932 1.206-28.355-26.826zm43.173 188.842l-43.173-40.846-43.172 40.846h-2.208l45.38-42.935 45.381 42.935h-2.208zm-35.557 0l-7.616-7.204-7.615 7.204h-2.205l9.82-9.293 9.824 9.293h-2.208zm71.117 0l-78.733-74.487-78.73 74.487h-2.208l80.938-76.577 80.939 76.577h-2.206zm-56.865-97.044l74.37-70.362 74.369 70.362-.932 1.206-73.436-69.48-73.44 69.48-.93-1.206zm60.097 77.71l14.274-13.505 14.271 13.506-.929 1.205-13.342-12.623-13.343 12.624-.931-1.206zm14.274-78.7L1207.32 689l-.932-1.205 44.322-41.933 44.32 41.933-.932 1.206-43.388-41.051zm-29.3 59.272l29.3-27.719 29.297 27.72-.932 1.206-28.365-26.838-28.368 26.838-.932-1.207zm29.3-160.197l-88.462 83.693-.931-1.206 89.393-84.576 89.393 84.575-.934 1.207-88.46-83.693zm81.975 55.167l14.234-13.47.016.015.024-.026 14.25 13.48-.932 1.205-13.332-12.611-13.329 12.611-.931-1.204zm14.26-78.69l-43.377 41.04-.931-1.207 44.225-41.842.073.084.083-.095 44.236 41.853-.931 1.206-43.378-41.04zm0 33.64l-28.354 26.827-.932-1.206 29.203-27.63.073.083.083-.092 29.214 27.64-.932 1.205-28.355-26.826zm43.173 188.842l-43.173-40.846-43.172 40.846h-2.208l45.356-42.91.014.014.024-.024 45.367 42.92h-2.208zm-35.557 0l-7.616-7.204-7.615 7.204h-2.205l9.796-9.269.014.014.024-.024 9.81 9.28h-2.208zm71.117 0l-78.733-74.487-78.73 74.487h-2.208l80.914-76.552.014.015.024-.025 80.925 76.562h-2.206zm17.503-165.317l-73.436 69.48-.932-1.207 74.368-70.362 74.37 70.362-.931 1.206-73.44-69.48zm0 134.566l-13.343 12.623-.929-1.205 14.272-13.506 14.274 13.506-.931 1.206-13.343-12.624zm0-67.283L1399.794 689l-.932-1.205 44.32-41.933 44.322 41.933-.931 1.206-43.391-41.051zm0 33.641l-28.365 26.838-.932-1.207 29.297-27.719 29.3 27.72-.932 1.206-28.368-26.838zm0-134.566l-88.459 83.693-.934-1.207 89.393-84.575 89.396 84.575-.934 1.207-88.462-83.693zm96.238 43.76l-13.331 12.61-.93-1.203 14.237-13.472.014.015.024-.024 14.25 13.48-.932 1.205-13.332-12.611zm0-67.283l-43.377 41.04-.932-1.207 44.226-41.842.073.084.083-.095 44.236 41.853-.931 1.206-43.378-41.04zm0 33.64l-28.354 26.827-.932-1.206 29.203-27.63.073.083.083-.092 29.214 27.64-.932 1.205-28.355-26.826zm43.173 188.842l-43.173-40.846-43.172 40.846h-2.208l45.356-42.91.014.014.024-.024 45.367 42.92h-2.208zm-35.558 0l-7.615-7.204-7.615 7.204h-2.208l9.8-9.269.013.012.024-.022 9.81 9.28h-2.209zm71.115 0l-78.73-74.487-78.733 74.487h-2.205l80.914-76.552.014.015.024-.025 80.925 76.562h-2.209zm17.506-730.442l-36.565 34.595.743-.962-1.664-1.573 1.804 1.389 5.192-6.712 30.49-28.825 30.635 28.982 4.257 5.533 48.615-45.994h2.205l-49.888 47.2.749.967-36.573-34.6zm-85.71-13.567h2.205l46.6 44.092-.928 1.205-47.877-45.297zm85.71 80.852l-73.436 69.48-.932-1.207 74.368-70.362 74.37 70.362-.931 1.206-73.44-69.48zm0 134.566l-13.342 12.623-.932-1.205 14.274-13.507 14.274 13.507-.932 1.205-13.342-12.623zm0-67.284l-43.388 41.051-.932-1.206 44.32-41.933 44.322 41.933-.931 1.206-43.391-41.05zm0 33.642l-28.365 26.837-.932-1.206 29.297-27.719 29.3 27.719-.932 1.206-28.368-26.837zm0-134.566l-88.462 83.693-.931-1.206 89.393-84.576 89.393 84.576-.931 1.206-88.462-83.693zm21.878-22.545l26.071-24.665h2.206l-27.345 25.87-.932-1.205zm-15.022-19.428l5.533-5.237h2.208l-6.81 6.444-.931-1.207zm60.096 77.711l29.203-27.63.073.082.083-.091 29.213 27.637-.931 1.207-28.355-26.825-28.354 26.826-.932-1.206zm-45.074 190.637l74.336-70.327.014.016.026-.024 74.341 70.335-.931 1.205-73.426-69.467-73.428 69.467-.932-1.205zm-15.022-19.427l89.358-84.542.014.016.026-.024 89.364 84.55-.929 1.204-88.45-83.68-88.452 83.681-.931-1.205zM1539.42 92.946l-13.331 12.61-.93-1.204 14.237-13.47.014.014.024-.024 14.25 13.479-.932 1.206-13.332-12.611zm0-67.284l-43.377 41.04-.932-1.206 44.226-41.842.073.083.083-.094 44.236 41.853-.931 1.206-43.378-41.04zm81.641-23.686h2.206l5.536 5.237-.932 1.207-6.81-6.444zm-35.557 0h2.205l26.069 24.665-.932 1.205-27.342-25.87zm206.801 47.2l-1.674-1.584 1.817 1.4 5.192-6.712 30.49-28.825 30.632 28.982 4.26 5.533 48.615-45.994h2.205l-49.888 47.2.748.967-36.572-34.6-36.576 34.604.751-.97zm-49.888-47.2h2.209l46.6 44.092-.932 1.206-47.877-45.298zm85.713 80.852l-73.437 69.48-.931-1.207 74.368-70.362 74.37 70.362-.931 1.206-73.44-69.48zm0 134.566l-13.343 12.623-.931-1.205 14.274-13.507 14.274 13.507-.932 1.205-13.342-12.623zm0-67.284l-43.39 41.051-.933-1.206 44.323-41.933 44.322 41.933-.931 1.206-43.391-41.05zm-29.297 59.273l29.297-27.719 29.297 27.719-.93 1.205-28.367-26.836-28.365 26.837-.932-1.206zm29.297-160.197l-88.462 83.693-.932-1.206 89.394-84.576 89.393 84.576-.931 1.206-88.462-83.693zm81.975 55.166L1923 92.15v2.09l-11.964 11.317-.931-1.205zm-60.097-77.71l26.069-24.666h2.208l-27.345 25.87-.932-1.205zm-15.022-19.429l5.533-5.237h2.208l-6.81 6.444-.931-1.207zm45.07 58.283L1923 24.866v2.09l-42.012 39.746-.932-1.206zm15.026 19.428L1923 58.507v2.09l-26.986 25.533-.932-1.206zm-391.475 88.712l-60.425-57.167-60.425 57.17.749.964-36.56-34.588-36.561 34.591.75-.97-60.424-57.167-60.428 57.17.749.964-36.56-34.588-36.561 34.591.75-.97-60.424-57.167-60.425 57.168.754.976-36.567-34.598-36.568 34.598.757-.977-60.425-57.167-60.425 57.168.754.973-36.564-34.595-36.573 34.601.76-.98-60.426-57.167-60.425 57.168.751.972-36.561-34.594-36.57 34.6.756-.98-60.425-57.166-60.424 57.168.753.973-36.564-34.595-36.566 34.595.754-.974-60.425-57.167-60.426 57.168.75.97-36.561-34.592-36.566 34.595.754-.974-60.425-57.167-60.424 57.168.752.973L491521 141.308v-2.088L30.254 166.898l1.496 1.961 2.763 3.572 61.356-58.05 59.347 56.148-.742.959 2.183 1.679 4.971-6.426 30.478-28.814 30.622 28.97 1.494 1.96 2.764 3.574 61.357-58.05 61.355 58.05 1.674-2.165 2.729-3.525 30.478-28.814 30.621 28.97 4.259 5.535 61.356-58.051 59.345 56.148-.772 1 2.183 1.68 5.004-6.468 30.476-28.814 30.624 28.97 1.492 1.96 2.766 3.574 61.356-58.05 61.357 58.05 4.338-5.608 30.54-28.896 30.625 28.97 1.495 1.96 2.763 3.574 61.356-58.05 61.357 58.051 2.733-3.537 1.667-2.154 30.479-28.814 30.624 28.97 1.495 1.96 2.762 3.574 61.357-58.05 61.356 58.051 2.734-3.537 1.666-2.154 30.48-28.814 30.624 28.97 1.492 1.96 2.765 3.574 61.357-58.05 61.354 58.05 4.402-5.69 30.455-28.79.014.014.024-.024 30.608 28.957 4.257 5.534 61.357-58.051 61.357 58.05.947-1.224 3.455-4.466 30.455-28.79.014.014.024-.024 30.608 28.957 4.257 5.534 61.357-58.051L1695 170.529l-.929 1.206-58.416-55.266-60.425 57.168.748.967-36.559-34.589-36.572 34.601.759-.98zm194.305-2.365l3.503-4.53 30.455-28.79.014.014.024-.024 30.608 28.957 4.257 5.534 61.357-58.051 59.345 56.148-.932 1.205-58.413-55.265-60.425 57.168.754.973-36.565-34.595-36.57 34.6 2.588-3.344zm195.977-4.53L1923 139.219v2.09l-35.191 33.296 6.08-7.864zm-176.258-62.39l14.239-13.47.014.015.024-.024 14.247 13.479-.932 1.206-13.329-12.611-13.332 12.61-.931-1.204zm-30.048-38.856l44.228-41.841.073.085.086-.094 44.233 41.85-.932 1.207-43.377-41.04-43.377 41.04-.934-1.207zm125.952-63.519h2.206l5.533 5.237-.929 1.205-6.81-6.442zm-35.56 0h2.208l26.068 24.665-.931 1.205-27.345-25.87zm-142.32 329.772l-73.435 69.479-.932-1.206 74.368-70.362 74.37 70.362-.931 1.206-73.44-69.48zm0 134.566l-13.341 12.624-.932-1.206 14.274-13.507 14.274 13.507-.932 1.206-13.342-12.624zm0-67.284l-43.387 41.052-.932-1.207 44.32-41.932 44.322 41.932-.931 1.207-43.391-41.052zm0 33.642l-28.364 26.838-.932-1.207 29.297-27.719 29.3 27.72-.932 1.206-28.368-26.838zm0-134.566l-88.46 83.693-.932-1.206 89.393-84.576 89.393 84.576-.931 1.206-88.462-83.693zm81.976 55.165l14.239-13.47.014.015.024-.024 14.247 13.479-.932 1.206-13.329-12.611-13.332 12.611-.931-1.206zm14.263-78.69l-43.377 41.04-.934-1.206 44.287-41.897.014.016.026-.024 44.293 41.906-.932 1.206-43.377-41.04zm-29.286 59.263l29.262-27.685.014.013.024-.023 29.272 27.694-.934 1.206-28.352-26.825-28.354 26.825-.932-1.205zm-45.074 190.637l74.336-70.327.014.016.026-.024 74.341 70.335-.931 1.205-73.426-69.467-73.428 69.467-.932-1.205zm-15.022-19.427l89.358-84.541.014.016.026-.024 89.364 84.549-.929 1.204-88.45-83.68-88.452 83.682-.931-1.206zm-427.625-206.958l-60.415-57.155-60.41 57.155.748.967-36.573-34.599-36.575 34.605.75-.973-1.677-1.586 1.82 1.4 5.19-6.711 30.492-28.824 30.632 28.982 4.258 5.535 61.345-58.04 61.347 58.04 4.4-5.693 30.492-28.824 30.632 28.982 4.258 5.535 61.321-58.016.014.015.024-.024 61.332 58.025 4.4-5.693 30.49-28.824 30.635 28.982 4.257 5.535 61.322-58.016.014.015.024-.024 59.318 56.123-.929 1.203-58.403-55.252-60.414 57.155.749.967-36.573-34.599-36.567 34.595.746-.963-60.415-57.155-60.414 57.155.74.958-36.561-34.59-36.576 34.605.752-.973zm577.418 0l-1.674-1.585 1.817 1.401 5.192-6.712 30.49-28.825 30.632 28.982 4.26 5.535L1923 240.145v2.089l-59.046 55.862.748.967-36.572-34.599-36.576 34.603.751-.97zm-1347.314 0l-1.675-1.583 1.818 1.4 5.192-6.713 30.49-28.825 30.632 28.982 4.26 5.535 61.346-58.04 59.331 56.138-.931 1.204-58.4-55.253-60.415 57.155.75.967-36.574-34.599-36.575 34.603.751-.97zm384.948 0l-1.675-1.585 1.818 1.4 5.189-6.712 30.492-28.824 30.633 28.982 4.26 5.535 61.343-58.04 59.334 56.138-.932 1.204-58.4-55.253-60.414 57.155.749.967-36.573-34.599-36.575 34.603.751-.97zm-192.474 0l-1.675-1.585 1.818 1.4 5.189-6.712 30.492-28.824 30.633 28.982 4.26 5.535 61.343-58.04 59.334 56.138-.931 1.204-58.4-55.253-60.415 57.155.749.967-36.573-34.599-36.575 34.603.751-.97zm-384.946 0l-60.413-57.155-60.414 57.155.744.963-36.567-34.595-36.571 34.6.748-.968-1.67-1.58 1.813 1.396 5.19-6.712 30.49-28.825 30.631 28.982 4.26 5.535 61.346-58.04 61.344 58.04 4.403-5.692 30.49-28.825 30.631 28.982 4.26 5.535 61.346-58.04 59.331 56.138-.931 1.204-58.4-55.253-60.414 57.155.744.963-36.567-34.595-36.574 34.602.75-.97zm1383.137-33.632l-36.567 34.595.745-.963-1.664-1.573 1.804 1.39 5.192-6.713 30.49-28.825 30.635 28.982 4.257 5.535 61.322-58.016.014.015.024-.024 59.318 56.123-.932 1.204-58.4-55.253-60.414 57.155.749.967-36.573-34.599zM491521 242.234v-2.09L58.965 294.99l-.93 1.204L491521 242.234zM1828.13 331.748l-73.437 69.479-.931-1.206 74.368-70.362 74.37 70.362-.931 1.206-73.44-69.48zm0 134.566l-13.343 12.624-.931-1.206 14.274-13.507 14.274 13.507-.932 1.206-13.342-12.624zm0-67.284l-43.39 41.052-.933-1.207 44.323-41.932 44.322 41.932-.931 1.207-43.391-41.052zm-29.297 59.273l29.297-27.719 29.297 27.72-.93 1.204-28.367-26.836-28.365 26.838-.932-1.207zm29.297-160.197l-88.462 83.693-.932-1.206 89.394-84.576 89.393 84.576-.931 1.206-88.462-83.693zm81.975 55.165l12.895-12.2v2.088l-11.964 11.318-.931-1.206zm-60.097-77.71L1923 206.503v2.089l-72.06 68.174-.932-1.205zm-15.022-19.427L1923 172.862v2.088l-87.083 82.39-.931-1.206zm45.07 58.282l42.944-40.63v2.09l-42.012 39.745-.932-1.205zm15.026 19.428L1923 307.429v2.089l-26.986 25.531-.932-1.205zm-933.083 55.092l-36.56 34.59 3.988-5.16 2.093-2.706 30.479-28.813 30.624 28.971 1.495 1.96 2.762 3.573 61.357-58.05 59.345 56.148-.932 1.205-58.413-55.265-60.425 57.168.751.972L962 388.936zM738.98 415.745l30.544-28.898 30.624 28.971 1.495 1.96 2.763 3.573 61.356-58.05 59.345 56.148-.932 1.205-58.413-55.265-60.425 57.168.752.97-36.562-34.591-36.565 34.592 6.018-7.783zm-192.406-.084l30.476-28.814 30.624 28.971 1.492 1.96 2.766 3.573 61.356-58.05 59.345 56.148-.931 1.205-58.414-55.265-60.425 57.168.751.97-36.561-34.591-36.565 34.59 6.086-7.865zm1185.32-26.725l-36.555 34.583 6.075-7.86 30.455-28.788.014.015.024-.025 30.608 28.957 4.257 5.534 61.357-58.051 59.345 56.148-.932 1.205-58.413-55.265-60.425 57.168.751.97-36.562-34.591zm-1347.315 0l-36.56 34.588 6.08-7.864 30.479-28.813 30.621 28.971 4.259 5.534 61.356-58.051 59.345 56.148-.931 1.205-58.414-55.265-60.424 57.168.75.97-36.561-34.591zM491521 390.229v-2.088L30.254 415.818l1.496 1.961 2.763 3.572 61.356-58.05 59.347 56.148-.932 1.205-58.415-55.265-60.425 57.168.75.97L491521 390.229zM192.106 388.936l-36.554 34.583 6.076-7.86 30.478-28.812 30.622 28.971 1.494 1.96 2.764 3.573 61.357-58.05 59.345 56.148-.932 1.205-58.413-55.265-60.426 57.168.748.967-36.559-34.588zm1154.84 0l-36.553 34.583 6.074-7.86 30.455-28.788.014.015.024-.025 30.608 28.957 4.257 5.534 61.357-58.051 59.348 56.15-.932 1.204-58.416-55.266-60.425 57.17.746.961-36.557-34.584zm-192.474 0l-36.553 34.583 3.982-5.153 2.092-2.706 30.48-28.813 30.624 28.971 1.492 1.96 2.765 3.573 61.357-58.05 59.345 56.15-.932 1.203-58.413-55.265-60.428 57.17.746.961-36.557-34.584zm384.948 0l-36.554 34.583 6.075-7.86 30.455-28.788.014.015.024-.025 30.608 28.957 4.257 5.534 61.357-58.051L1695 419.449l-.929 1.206-58.416-55.266-60.425 57.168.746.963-36.557-34.584zm354.47 26.724l29.11-27.52v2.089l-35.186 33.29 6.075-7.86zm-258.234 165.008l-73.436 69.48-.932-1.207 74.368-70.362 74.37 70.362-.931 1.206-73.44-69.48zm0 134.566l-13.342 12.624-.932-1.206 14.274-13.506 14.274 13.506-.932 1.206-13.342-12.624zm0-67.283L1592.268 689l-.932-1.205 44.32-41.933 44.322 41.933-.931 1.206-43.391-41.051zm0 33.641l-28.365 26.838-.932-1.207 29.297-27.719 29.3 27.72-.932 1.206-28.368-26.838zm0-134.566l-88.462 83.693-.931-1.206 89.393-84.576 89.393 84.576-.931 1.206-88.462-83.693zm81.975 55.167l14.239-13.472.014.015.024-.024 14.247 13.48-.932 1.205-13.329-12.611-13.332 12.611-.931-1.204zm-30.048-38.858l44.228-41.84.073.084.086-.094 44.233 41.851-.932 1.206-43.377-41.04-43.377 41.04-.934-1.207zm15.025 19.43l29.203-27.63.073.082.083-.092 29.213 27.638-.931 1.206-28.355-26.825-28.354 26.826-.932-1.206zm72.459 163.22l-43.173-40.846-43.173 40.846h-2.207l45.356-42.91.014.016.026-.024 45.362 42.918h-2.205zm-35.558 0l-7.615-7.204-7.615 7.204h-2.208l9.799-9.269.014.014.024-.023 9.807 9.278h-2.206zm71.115 0l-78.73-74.487-78.733 74.487h-2.205l80.914-76.552.014.015.024-.025 80.924 76.562h-2.208zm-595.737-198.969l-60.415-57.155-60.41 57.155.748.967-36.573-34.6-36.575 34.604.75-.97-1.674-1.583 1.817 1.397 5.19-6.712 30.492-28.824 30.632 28.982 4.258 5.534 61.345-58.039 61.347 58.039 4.4-5.69 30.492-28.826 30.632 28.982 4.258 5.534 61.321-58.015.014.015.024-.024 61.332 58.024 4.4-5.69 30.49-28.826 30.635 28.982 4.257 5.534 61.322-58.015.014.015.024-.024 59.318 56.121-.929 1.205-58.403-55.252-60.414 57.155.749.967-36.573-34.6-36.564 34.595.743-.962-60.415-57.155-60.414 57.155.74.958-36.561-34.591-36.576 34.604.752-.97zm577.418 0l-1.672-1.582 1.815 1.398 5.192-6.712 30.49-28.825 30.632 28.982 4.26 5.534L1923 489.065v2.089l-59.046 55.862.748.966-36.572-34.6-36.576 34.605.751-.97zm-1347.314 0l-1.672-1.582 1.815 1.398 5.192-6.712 30.49-28.825 30.632 28.982 4.26 5.534 61.346-58.039 59.331 56.136-.931 1.206-58.4-55.253-60.415 57.155.75.966-36.574-34.6-36.575 34.605.751-.97zm384.948 0l-1.672-1.582 1.815 1.397 5.189-6.712 30.492-28.824 30.633 28.982 4.26 5.534 61.343-58.039 59.334 56.136-.932 1.206-58.4-55.253-60.414 57.155.749.967-36.573-34.6-36.575 34.603.751-.97zm-192.474 0l-1.672-1.582 1.815 1.397 5.189-6.712 30.492-28.824 30.633 28.982 4.26 5.534 61.343-58.039 59.334 56.136-.931 1.206-58.4-55.253-60.415 57.155.749.967-36.573-34.6-36.575 34.603.751-.97zm-384.946 0l-1.67-1.58 1.813 1.396 5.191-6.712 30.49-28.825 30.631 28.982 4.26 5.534 61.346-58.039 59.331 56.136-.931 1.206-58.4-55.253-60.414 57.155.743.96-36.566-34.593-36.573 34.602.749-.969zm1383.137-33.633l-36.565 34.595.743-.962-1.66-1.571 1.8 1.387 5.192-6.712 30.49-28.825 30.635 28.982 4.257 5.534 61.322-58.015.014.015.024-.024 59.318 56.121-.932 1.206-58.4-55.253-60.414 57.155.749.967-36.573-34.6zM60.046 547.016l-1.667-1.577 1.81 1.393 5.19-6.712 30.49-28.825 30.631 28.982 4.26 5.534 61.346-58.039 59.333 56.136-.932 1.206-58.401-55.253-60.414 57.155.744.962-36.567-34.595-36.57 34.6.747-.967zM491521 491.154v-2.089L58.966 543.908l-.931 1.206L491521 491.154zM1828.13 580.668l-73.437 69.48-.931-1.207 74.368-70.362 74.37 70.362-.931 1.206-73.44-69.48zm0 134.566l-13.343 12.624-.931-1.206 14.274-13.506 14.274 13.506-.932 1.206-13.342-12.624zm0-67.283L1784.74 689l-.933-1.205 44.323-41.933 44.322 41.933-.931 1.206-43.391-41.051zm-29.297 59.272l29.297-27.719 29.297 27.72-.93 1.204-28.367-26.836-28.365 26.838-.932-1.207zm29.297-160.197l-88.462 83.693-.932-1.206 89.394-84.576 89.393 84.576-.931 1.206-88.462-83.693zm81.975 55.167L1923 589.99v2.09l-11.964 11.317-.931-1.204zm-60.097-77.712L1923 455.423v2.09l-72.06 68.173-.932-1.205zm-15.022-19.427L1923 421.782v2.088l-87.083 82.39-.931-1.206zm45.07 58.282l42.944-40.63v2.09l-42.012 39.746-.932-1.206zm15.026 19.428L1923 556.347v2.09l-26.986 25.533-.932-1.206zm-391.475 88.712l-60.425-57.167-60.425 57.17.749.964-36.56-34.587-36.561 34.59.75-.97-60.424-57.167-60.428 57.17.749.964-36.56-34.587-36.561 34.59.75-.97-60.424-57.167-60.425 57.168.754.977-36.567-34.598-36.568 34.598.757-.978-60.425-57.167-60.425 57.168.754.974-36.564-34.595-36.573 34.6.76-.98-60.426-57.167-60.425 57.168.751.973-36.561-34.594-36.57 34.599.756-.98-60.425-57.166-60.424 57.168.753.974-36.564-34.595-36.566 34.595.754-.975-60.425-57.167-60.426 57.168.75.97-36.561-34.591-36.566 34.595.754-.975-60.425-57.167-60.424 57.168.752.974L491521 639.149v-2.088L30.254 664.738l1.496 1.962 2.763 3.571 61.356-58.05 59.347 56.148-.742.959 2.183 1.68 4.971-6.427 30.478-28.814 30.622 28.971 1.494 1.96 2.764 3.573 61.357-58.05 61.355 58.05 1.674-2.164 2.729-3.526 30.478-28.814 30.621 28.971 4.259 5.534 61.356-58.051 59.345 56.148-.772 1 2.183 1.68 5.004-6.468 30.476-28.814 30.624 28.971 1.492 1.96 2.766 3.573 61.356-58.05 61.357 58.05 4.338-5.608 30.54-28.896 30.625 28.971 1.495 1.96 2.763 3.573 61.356-58.05 61.357 58.051 2.733-3.537 1.667-2.154 30.479-28.814 30.624 28.971 1.495 1.96 2.762 3.573 61.357-58.05 61.356 58.051 2.734-3.537 1.666-2.154 30.48-28.814 30.624 28.971 1.492 1.96 2.765 3.573 61.357-58.05 61.354 58.05 4.402-5.69 30.455-28.79.014.015.024-.025 30.608 28.957 4.257 5.534 61.357-58.051 61.357 58.05.947-1.223 3.455-4.467 30.455-28.79.014.015.024-.025 30.608 28.957 4.257 5.534 61.357-58.051L1695 668.369l-.929 1.206-58.416-55.266-60.425 57.168.748.967-36.559-34.588-36.572 34.6.759-.98zm194.305-2.364l3.503-4.53 30.455-28.791.014.015.024-.025 30.608 28.957 4.257 5.534 61.357-58.051 59.345 56.148-.932 1.205-58.413-55.265-60.425 57.168.754.974-36.565-34.595-36.57 34.599 2.588-3.343zm195.977-4.53L1923 637.058v2.09l-35.191 33.297 6.08-7.865zm-14.902 81.403L1923 704.344v2.088l-41.807 39.553h-2.206zm35.558 0l8.455-8v2.09l-6.247 5.91h-2.208zm-71.118 0L1923 670.702v2.089l-77.365 73.194h-2.208z"/></svg>