<svg xmlns="http://www.w3.org/2000/svg" width="11" height="12"><path fill="#727272" paint-order="stroke fill markers" fill-rule="evenodd" d="M9.907 5.768l-4.338-4.66a.286.286 0 00-.214-.1.286.286 0 00-.214.1l-.465.5a.327.327 0 00-.093.23c0 .087.03.164.093.23l3.658 3.93-3.658 3.93a.33.33 0 000 .46l.465.5a.282.282 0 00.214.101c.08 0 .152-.033.214-.1l4.338-4.66a.33.33 0 000-.46v-.001zm-3.482.23a.328.328 0 00-.093-.23l-4.337-4.66a.288.288 0 00-.214-.1.287.287 0 00-.214.1l-.466.5a.328.328 0 000 .46l3.658 3.93-3.658 3.93a.33.33 0 000 .461l.466.5c.062.067.133.1.214.1.08 0 .152-.033.214-.1l4.337-4.66a.323.323 0 00.093-.23zm0 0"/></svg>