<svg width="19" height="23"><path fill="#FE3E57" paint-order="stroke fill markers" fill-rule="evenodd" d="M16.999 18.294L15.854 5.396a.55.55 0 00-.547-.504h-2.354a3.953 3.953 0 00-3.948-3.89 3.953 3.953 0 00-3.948 3.89H2.703a.548.548 0 00-.547.504L1.01 18.294c0 .017-.004.033-.004.05 0 1.468 1.345 2.662 3 2.662h9.996c1.655 0 3-1.194 3-2.663 0-.016 0-.032-.004-.05zM9.005 2.106a2.849 2.849 0 012.844 2.786H6.161a2.849 2.849 0 012.844-2.786zm4.998 17.796H4.007c-1.038 0-1.88-.687-1.896-1.534L3.206 6.001h1.847v1.677a.55.55 0 00.552.552.55.55 0 00.552-.552V6h5.692v1.677a.55.55 0 00.552.552.55.55 0 00.552-.552V6H14.8l1.1 12.367c-.017.847-.863 1.534-1.897 1.534zm0 0"/></svg>