<svg xmlns="http://www.w3.org/2000/svg" width="19" height="19"><path fill="#FE3E57" paint-order="stroke fill markers" fill-rule="evenodd" d="M16.125 3.25h-.75V2h-1.25v1.25h-8.25V2h-1.25v1.25h-.75A1.877 1.877 0 002 5.123v11C2 17.158 2.84 18 3.875 18h12.25C17.159 18 18 17.16 18 16.125v-11a1.877 1.877 0 00-1.875-1.875zM3.875 4.5h.75v1.249h1.25v-1.25h8.25v1.25h1.25v-1.25h.75c.345 0 .625.28.625.625v1.5H3.25v-1.5c0-.344.28-.625.625-.625zm12.25 12.25H3.875a.626.626 0 01-.625-.626v-8.25h13.5v8.25c0 .345-.28.625-.625.625zM4.375 9.186h1.25v1.25h-1.25v-1.25zm2.5 0h1.25v1.25h-1.25v-1.25zm2.5 0h1.25v1.25h-1.25v-1.25zm2.5 0h1.25v1.25h-1.25v-1.25zm2.5 0h1.25v1.25h-1.25v-1.25zm-10 2.5h1.25v1.25h-1.25v-1.25zm2.5 0h1.25v1.25h-1.25v-1.25zm2.5 0h1.25v1.25h-1.25v-1.25zm2.5 0h1.25v1.25h-1.25v-1.25zm-7.5 2.5h1.25v1.25h-1.25v-1.25zm2.5 0h1.25v1.25h-1.25v-1.25zm2.5 0h1.25v1.25h-1.25v-1.25zm2.5 0h1.25v1.25h-1.25v-1.25zm2.5-2.5h1.25v1.25h-1.25v-1.25z"/></svg>