<svg xmlns="http://www.w3.org/2000/svg" width="20" height="19"><path fill="#727272" paint-order="stroke fill markers" fill-rule="evenodd" d="M9.999 2l-7.77 6.857a.663.663 0 00-.065.925c.234.273.64.302.91.065l.286-.253v6.44c0 1.085.866 1.965 1.934 1.965h3.61v-5.274c0-.632.504-1.146 1.127-1.146s1.128.514 1.128 1.146V18h3.545c1.068 0 1.934-.88 1.934-1.965v-6.44l.286.253a.637.637 0 00.91-.065.663.663 0 00-.065-.925L10 2zm5.35 14.034a.65.65 0 01-.645.655h-2.256v-3.964c0-1.356-1.082-2.456-2.417-2.456-1.335 0-2.417 1.1-2.417 2.456v3.964h-2.32a.65.65 0 01-.645-.655V8.456L10 3.734l5.35 4.722v7.578z"/></svg>