<svg xmlns="http://www.w3.org/2000/svg" width="20" height="24"><path fill="#FE3E57" paint-order="stroke fill markers" fill-rule="evenodd" d="M1 9.938v10.308c0 .271.068.524.18.754l5.571-5.443-5.75-5.62zm12.248 5.619L18.818 21a1.7 1.7 0 00.18-.754V9.938l-5.75 5.619zM10 7.937c-.331 0-.6.262-.6.586 0 .323.269.586.6.586.415 0 .525-.278.591-.627A.59.59 0 0010 7.937zm2.15 8.206H7.849L2.03 21.829c.235.11.494.176.77.176h14.4c.277 0 .536-.067.771-.176l-5.82-5.686zM3.4 10.625V7.108L1.6 8.866l1.8 1.759zm14.999-1.759l-1.8-1.758v3.517l1.8-1.759zm-6.248 6.105l3.248-3.174v-9.05a.76.76 0 00-.769-.75H5.256a.649.649 0 00-.656.64v9.16l3.248 3.174h4.303zM5.8 8.523C5.8 6.26 7.684 4.42 10 4.42c2.315 0 4.2 1.84 4.2 4.103 0 1.507-1.835 2.33-3.001 1.301a1.81 1.81 0 01-1.2.457c-.992 0-1.8-.789-1.8-1.758 0-.97.808-1.759 1.8-1.759.993 0 1.8.79 1.8 1.759 0 .775 1.2.775 1.2 0 0-1.616-1.345-2.931-3-2.931-1.654 0-3 1.315-3 2.93 0 1.004.519 1.927 1.387 2.47.89.557 1.993.61 3.028.146.715-.325 1.224.74.501 1.064-1.375.619-2.902.575-4.176-.222-1.214-.76-1.94-2.052-1.94-3.457z"/></svg>