<svg xmlns="http://www.w3.org/2000/svg" width="24" height="24"><path fill="#FE3E57" paint-order="stroke fill markers" fill-rule="evenodd" d="M21.477 16.762l-2.485-2.487c-.663-.663-1.82-.665-2.485 0l-.414.415 4.97 4.973.414-.414a1.758 1.758 0 000-2.487zm-7.982-1.357l-4.912-4.92c-.479-.479-.495-1.226-.09-1.748L3.535 3.775c-2.133 2.488-2.05 6.238.304 8.594l7.774 7.784a6.283 6.283 0 008.587.305l-4.958-4.963c-.523.406-1.269.39-1.747-.09zM9.713 7.471a1.758 1.758 0 000-2.487L7.228 2.497c-.663-.664-1.821-.665-2.485 0l-.414.415 4.97 4.973.414-.414z"/></svg>