<svg xmlns="http://www.w3.org/2000/svg" width="23" height="24"><path fill="#29282D" paint-order="stroke fill markers" fill-rule="evenodd" d="M20.892 20.696l-5.81-5.81a7.878 7.878 0 001.765-4.973c0-4.366-3.551-7.917-7.916-7.917-4.366 0-7.917 3.551-7.917 7.917 0 4.365 3.551 7.917 7.917 7.917a7.878 7.878 0 004.973-1.765l5.81 5.81a.417.417 0 00.589 0l.589-.59a.416.416 0 000-.589zM8.931 16.163a6.256 6.256 0 01-6.25-6.25 6.257 6.257 0 016.25-6.25 6.257 6.257 0 016.25 6.25 6.257 6.257 0 01-6.25 6.25z"/></svg>