<svg xmlns="http://www.w3.org/2000/svg" width="19" height="19"><path fill="#FE3E57" paint-order="stroke fill markers" fill-rule="evenodd" d="M15.657 12.343a7.974 7.974 0 00-3.04-1.907 4.623 4.623 0 002.008-3.811A4.63 4.63 0 0010 2a4.623 4.623 0 00-2.617 8.436 7.975 7.975 0 00-3.04 1.907A7.948 7.948 0 002 18h1.25A6.758 6.758 0 0110 11.25 6.758 6.758 0 0116.75 18H18a7.947 7.947 0 00-2.343-5.657zM6.625 6.625A3.379 3.379 0 0110 3.25a3.379 3.379 0 013.375 3.375A3.379 3.379 0 0110 10a3.379 3.379 0 01-3.375-3.375z"/></svg>