<svg xmlns="http://www.w3.org/2000/svg" width="18" height="19"><path fill="#FE3E57" paint-order="stroke fill markers" fill-rule="evenodd" d="M15.125 3.25h-.75V2h-1.25v1.25h-8.25V2h-1.25v1.25h-.75A1.877 1.877 0 001 5.125v11C1 17.159 1.841 18 2.875 18h12.25A1.877 1.877 0 0017 16.125v-11a1.877 1.877 0 00-1.875-1.875zM2.875 4.5h.75v1.25h1.25V4.5h8.25v1.25h1.25V4.5h.75c.345 0 .625.28.625.625v1.5H2.25v-1.5c0-.345.28-.625.625-.625zm12.25 12.25H2.875a.626.626 0 01-.625-.625v-8.25h13.5v8.25c0 .344-.28.625-.625.625zM3.375 9.187h1.25v1.25h-1.25v-1.25zm2.5 0h1.25v1.25h-1.25v-1.25zm2.5 0h1.25v1.25h-1.25v-1.25zm2.5 0h1.25v1.25h-1.25v-1.25zm2.5 0h1.25v1.25h-1.25v-1.25zm-10 2.5h1.25v1.25h-1.25v-1.25zm2.5 0h1.25v1.25h-1.25v-1.25zm2.5 0h1.25v1.25h-1.25v-1.25zm2.5 0h1.25v1.25h-1.25v-1.25zm-7.5 2.5h1.25v1.25h-1.25v-1.25zm2.5 0h1.25v1.25h-1.25v-1.25zm2.5 0h1.25v1.25h-1.25v-1.25zm2.5 0h1.25v1.25h-1.25v-1.25zm2.5-2.5h1.25v1.25h-1.25v-1.25z"/></svg>