<svg xmlns="http://www.w3.org/2000/svg" width="23" height="23"><path fill="#FE3E57" paint-order="stroke fill markers" fill-rule="evenodd" d="M19.07 4.48A9.935 9.935 0 0012 1.55a9.935 9.935 0 00-7.071 2.93 9.935 9.935 0 00-2.93 7.07 9.939 9.939 0 002.93 7.072A9.935 9.935 0 0012 21.55a9.935 9.935 0 007.07-2.928A9.936 9.936 0 0022 11.55a9.935 9.935 0 00-2.93-7.07zM12 20.377c-4.868 0-8.828-3.96-8.828-8.828 0-4.867 3.96-8.828 8.828-8.828 4.868 0 8.828 3.96 8.828 8.828 0 4.868-3.96 8.828-8.828 8.828zm3.949-12.036l-5.174 5.174-2.724-2.724a.586.586 0 10-.829.829l3.138 3.138a.584.584 0 00.829 0l5.588-5.589a.586.586 0 10-.828-.828z"/></svg>