<svg xmlns="http://www.w3.org/2000/svg" width="19" height="19"><path fill="#FE3E57" paint-order="stroke fill markers" fill-rule="evenodd" d="M17.375 2H2.625A.625.625 0 002 2.625V15c0 .345.28.624.625.624h5.53l1.317 2.085a.625.625 0 001.056 0l1.316-2.085h5.53c.346 0 .626-.28.626-.624V2.625A.625.625 0 0017.375 2zm-.625 12.375H11.5a.625.625 0 00-.529.29L10 16.206l-.972-1.54a.625.625 0 00-.528-.29H3.25V3.25h13.5v11.125zM9.219 8.812a.781.781 0 111.562 0 .781.781 0 01-1.562 0zm-3.125 0a.781.781 0 111.562 0 .781.781 0 01-1.562 0zm6.25 0a.781.781 0 111.562 0 .781.781 0 01-1.562 0z"/></svg>