<svg xmlns="http://www.w3.org/2000/svg" width="24" height="23"><path fill="#29282D" paint-order="stroke fill markers" fill-rule="evenodd" d="M21.778 6.589c-.681-2.42-2.682-3.863-4.173-4.371-1.703-.595-3.747 0-5.578 1.611-1.83-1.57-3.875-2.121-5.578-1.57-1.49.552-3.492 1.995-4.173 4.372-.468 1.57-.511 4.117 1.959 7.215 1.107 1.4 2.81 3.395 4.215 4.965 2.683 3.014 3.109 3.183 3.492 3.183h.17c.384 0 .767-.169 3.45-3.225a228.517 228.517 0 004.215-4.966c2.47-3.097 2.47-5.644 2.001-7.214zM18.5 12.784c-1.96 2.462-5.323 6.324-6.473 7.386-1.15-1.062-4.514-4.924-6.472-7.386C3.937 10.79 3.34 8.838 3.852 7.097c.51-1.782 2-2.843 3.108-3.224 1.235-.468 2.896.169 4.428 1.655a.846.846 0 001.065.126c.085-.042.17-.084.213-.17 1.533-1.442 3.194-2.079 4.428-1.655 1.107.425 2.598 1.486 3.109 3.268.51 1.698-.085 3.693-1.703 5.687z"/></svg>