<svg width="27" height="23"><path fill="#29282D" paint-order="stroke fill markers" fill-rule="evenodd" d="M18.894 1.999c-2.424 0-3.96 1.424-4.82 2.62-.223.31-.413.62-.573.913a8.69 8.69 0 00-.573-.914c-.86-1.195-2.395-2.62-4.82-2.62-1.724 0-3.298.699-4.433 1.966C2.593 5.172 1.996 6.79 1.996 8.52c0 1.884.748 3.636 2.353 5.513 1.434 1.68 3.498 3.41 5.887 5.413.89.746 1.811 1.518 2.792 2.362l.03.025a.677.677 0 00.887 0l.03-.025c.98-.844 1.9-1.616 2.791-2.362 2.39-2.004 4.453-3.734 5.887-5.413 1.605-1.877 2.353-3.629 2.353-5.513 0-1.73-.596-3.349-1.679-4.557-1.135-1.268-2.71-1.965-4.433-1.965zm-3.002 16.438c-.768.643-1.558 1.306-2.39 2.018-.834-.712-1.624-1.374-2.391-2.018-4.677-3.92-7.766-6.511-7.766-9.916 0-1.407.476-2.715 1.342-3.68a4.532 4.532 0 013.421-1.516c1.849 0 3.043 1.12 3.72 2.06a7.825 7.825 0 011.032 2.019c.09.273.35.458.641.458.292 0 .55-.185.641-.458a7.817 7.817 0 011.032-2.019c.677-.94 1.872-2.06 3.72-2.06 1.331 0 2.546.538 3.422 1.515.865.966 1.342 2.274 1.342 3.681 0 3.405-3.09 5.995-7.766 9.916z"/></svg>