<svg xmlns="http://www.w3.org/2000/svg" width="13pt" height="17pt" viewBox="0 0 13 17"><path d="M6.906.215C3.434.215 0 2.488 0 6.165 0 8.5 1.34 9.827 2.152 9.827c.336 0 .528-.918.528-1.176 0-.308-.801-.964-.801-2.25 0-2.672 2.07-4.562 4.754-4.562 2.304 0 4.012 1.285 4.012 3.644 0 1.766-.723 5.07-3.06 5.07-.843 0-1.562-.597-1.562-1.452 0-1.254.895-2.473.895-3.766 0-2.2-3.18-1.8-3.18.855 0 .559.07 1.176.325 1.684-.47 1.973-1.422 4.91-1.422 6.945 0 .625.09 1.242.152 1.871.113.125.059.114.234.051C4.734 14.45 4.672 14 5.445 11.004c.414.777 1.492 1.195 2.344 1.195C11.387 12.2 13 8.762 13 5.664c0-3.297-2.906-5.45-6.094-5.45zm0 0"/></svg>