<svg xmlns="http://www.w3.org/2000/svg" width="16pt" height="16pt" viewBox="0 0 16 16"><path d="M14.355 4.742c.012.14.012.285.012.426 0 4.336-3.3 9.328-9.332 9.328A9.266 9.266 0 010 13.027c.266.028.52.04.793.04 1.531 0 2.941-.52 4.07-1.403a3.286 3.286 0 01-3.066-2.273c.203.03.406.05.621.05.293 0 .586-.039.86-.113a3.278 3.278 0 01-2.63-3.215V6.07c.438.246.946.399 1.485.418a3.278 3.278 0 01-1.461-2.73c0-.61.16-1.168.445-1.656a9.315 9.315 0 006.762 3.43 3.676 3.676 0 01-.082-.75 3.277 3.277 0 013.277-3.278c.946 0 1.797.394 2.399 1.035a6.554 6.554 0 002.082-.793 3.285 3.285 0 01-1.442 1.809A6.67 6.67 0 0016 3.047a7.059 7.059 0 01-1.645 1.695zm0 0"/></svg>