<svg xmlns="http://www.w3.org/2000/svg" width="23" height="23"><path fill="#29282D" paint-order="stroke fill markers" fill-rule="evenodd" d="M19.07 14.928a9.958 9.958 0 00-3.8-2.384 5.779 5.779 0 002.511-4.764A5.788 5.788 0 0012 2a5.788 5.788 0 00-5.781 5.78c0 1.975.995 3.72 2.51 4.764a9.958 9.958 0 00-3.8 2.384 9.934 9.934 0 00-2.93 7.07h1.563c0-4.652 3.785-8.436 8.438-8.436 4.652 0 8.437 3.784 8.437 8.436H22a9.93 9.93 0 00-2.93-7.07zM7.782 7.78A4.223 4.223 0 0112 3.561a4.223 4.223 0 014.219 4.22 4.224 4.224 0 01-4.22 4.218A4.224 4.224 0 017.782 7.78z"/></svg>