<svg version="1.1" xmlns="http://www.w3.org/2000/svg" xmlns:xlink="http://www.w3.org/1999/xlink" width="14" height="8"><defs/><g><path fill="rgb(141,141,141)" stroke="none" paint-order="stroke fill markers" fill-rule="evenodd" d=" M 6.9831390380859375 6.999377250671387 C 6.803352355957031 6.999377250671387 6.623680114746094 6.93917989730835 6.487152099609375 6.81999397277832 C 6.487152099609375 6.81999397277832 2.1734161376953125 3.048351764678955 2.1734161376953125 3.048351764678955 C 1.8984146118164062 2.8080458641052246 1.8984146118164062 2.4190597534179688 2.1734161376953125 2.1792373657226562 C 2.4476165771484375 1.9398984909057617 2.8925628662109375 1.9398984909057617 3.1668777465820312 2.1792373657226562 C 3.1668777465820312 2.1792373657226562 6.9831390380859375 5.516443252563477 6.9831390380859375 5.516443252563477 C 6.9831390380859375 5.516443252563477 10.800201416015625 2.179962635040283 10.800201416015625 2.179962635040283 C 11.074516296386719 1.9398984909057617 11.51934814453125 1.9398984909057617 11.793663024902344 2.179962635040283 C 12.067977905273438 2.4195432662963867 12.067977905273438 2.8085293769836426 11.793663024902344 3.048351764678955 C 11.793663024902344 3.048351764678955 7.479927062988281 6.81999397277832 7.479927062988281 6.81999397277832 C 7.343513488769531 6.939905166625977 7.1630401611328125 6.999377250671387 6.9831390380859375 6.999377250671387 C 6.9831390380859375 6.999377250671387 6.9831390380859375 6.999377250671387 6.9831390380859375 6.999377250671387 Z M 6.9831390380859375 6.999377250671387 C 6.9831390380859375 6.999377250671387 6.9831390380859375 6.999377250671387 6.9831390380859375 6.999377250671387"/></g></svg>