<svg version="1.1" xmlns="http://www.w3.org/2000/svg" xmlns:xlink="http://www.w3.org/1999/xlink" width="9" height="13"><defs/><g><path fill="rgb(141,141,141)" stroke="none" paint-order="stroke fill markers" fill-rule="evenodd" d=" M 7.004737854003906 6.17895233631134 C 7.004737854003906 5.99971342086792 6.9446563720703125 5.820689678192139 6.825408935546875 5.6847004890441895 C 6.825408935546875 5.6847004890441895 3.0601882934570312 1.3877003192901611 3.0601882934570312 1.3877003192901611 C 2.8200912475585938 1.1137853860855103 2.4316787719726562 1.1137853860855103 2.1923828125 1.3877003192901611 C 1.952972412109375 1.6609697341918945 1.952972412109375 2.1040104627609253 2.1923828125 2.3772798776626587 C 2.1923828125 2.3772798776626587 5.524101257324219 6.17895233631134 5.524101257324219 6.17895233631134 C 5.524101257324219 6.17895233631134 2.1929550170898438 9.9810551404953 2.1929550170898438 9.9810551404953 C 1.9535446166992188 10.254109382629395 1.9535446166992188 10.697365283966064 2.1929550170898438 10.970849871635437 C 2.4323654174804688 11.243688941001892 2.8207778930664062 11.243688941001892 3.0601882934570312 10.970849871635437 C 3.0601882934570312 10.970849871635437 6.825408935546875 6.6736345291137695 6.825408935546875 6.6736345291137695 C 6.945228576660156 6.53764533996582 7.004737854003906 6.357760906219482 7.004737854003906 6.17895233631134 C 7.004737854003906 6.17895233631134 7.004737854003906 6.17895233631134 7.004737854003906 6.17895233631134 Z M 7.004737854003906 6.17895233631134 C 7.004737854003906 6.17895233631134 7.004737854003906 6.17895233631134 7.004737854003906 6.17895233631134"/></g></svg>