<svg version="1.1" xmlns="http://www.w3.org/2000/svg" xmlns:xlink="http://www.w3.org/1999/xlink" width="11" height="12"><defs/><g><path fill="rgb(114,114,114)" stroke="none" paint-order="stroke fill markers" fill-rule="evenodd" d=" M 9.906715393066406 5.7679749727249146 C 9.906715393066406 5.7679749727249146 5.569175720214844 1.10786372423172 5.569175720214844 1.10786372423172 C 5.507148742675781 1.0417102575302124 5.43585205078125 1.0080896615982056 5.354942321777344 1.0080896615982056 C 5.274604797363281 1.0080896615982056 5.203193664550781 1.0417102575302124 5.1412811279296875 1.10786372423172 C 5.1412811279296875 1.10786372423172 4.675506591796875 1.6082172989845276 4.675506591796875 1.6082172989845276 C 4.6134796142578125 1.6746674180030823 4.5828094482421875 1.7514014840126038 4.5828094482421875 1.838122844696045 C 4.5828094482421875 1.9249430894851685 4.6134796142578125 2.0020726919174194 4.675506591796875 2.0683250427246094 C 4.675506591796875 2.0683250427246094 8.333724975585938 5.998473823070526 8.333724975585938 5.998473823070526 C 8.333724975585938 5.998473823070526 4.675506591796875 9.928721487522125 4.675506591796875 9.928721487522125 C 4.6134796142578125 9.995468258857727 4.5828094482421875 10.072103440761566 4.5828094482421875 10.15892368555069 C 4.5828094482421875 10.245051741600037 4.6134796142578125 10.322082459926605 4.675506591796875 10.389422535896301 C 4.675506591796875 10.389422535896301 5.1412811279296875 10.888886153697968 5.1412811279296875 10.888886153697968 C 5.203193664550781 10.95563292503357 5.274604797363281 10.988956868648529 5.354942321777344 10.988956868648529 C 5.43585205078125 10.988956868648529 5.507148742675781 10.95563292503357 5.569175720214844 10.888886153697968 C 5.569175720214844 10.888886153697968 9.906715393066406 6.228082716464996 9.906715393066406 6.228082716464996 C 9.968742370605469 6.1621270179748535 9.999526977539062 6.085491836071014 9.999526977539062 5.998473823070526 C 9.999526977539062 5.9121479988098145 9.968742370605469 5.8350183963775635 9.906715393066406 5.7679749727249146 C 9.906715393066406 5.7679749727249146 9.906715393066406 5.7679749727249146 9.906715393066406 5.7679749727249146 Z M 9.906715393066406 5.7679749727249146 C 9.906715393066406 5.7679749727249146 9.906715393066406 5.7679749727249146 9.906715393066406 5.7679749727249146 M 6.425422668457031 5.998473823070526 C 6.425422668457031 5.9121479988098145 6.394752502441406 5.8350183963775635 6.3321533203125 5.7679749727249146 C 6.3321533203125 5.7679749727249146 1.9950714111328125 1.10786372423172 1.9950714111328125 1.10786372423172 C 1.932586669921875 1.0417102575302124 1.861175537109375 1.0080896615982056 1.7808380126953125 1.0080896615982056 C 1.700042724609375 1.0080896615982056 1.628631591796875 1.0417102575302124 1.5666046142578125 1.10786372423172 C 1.5666046142578125 1.10786372423172 1.1014022827148438 1.6082172989845276 1.1014022827148438 1.6082172989845276 C 1.0396041870117188 1.6746674180030823 1.0082473754882812 1.7514014840126038 1.0082473754882812 1.838122844696045 C 1.0082473754882812 1.9249430894851685 1.0396041870117188 2.0020726919174194 1.1014022827148438 2.0683250427246094 C 1.1014022827148438 2.0683250427246094 4.759162902832031 5.998473823070526 4.759162902832031 5.998473823070526 C 4.759162902832031 5.998473823070526 1.1014022827148438 9.928721487522125 1.1014022827148438 9.928721487522125 C 1.0396041870117188 9.995468258857727 1.0082473754882812 10.072103440761566 1.0082473754882812 10.15892368555069 C 1.0082473754882812 10.245051741600037 1.0396041870117188 10.322082459926605 1.1014022827148438 10.389422535896301 C 1.1014022827148438 10.389422535896301 1.5666046142578125 10.888886153697968 1.5666046142578125 10.888886153697968 C 1.628631591796875 10.95563292503357 1.700042724609375 10.988956868648529 1.7808380126953125 10.988956868648529 C 1.861175537109375 10.988956868648529 1.932586669921875 10.95563292503357 1.9950714111328125 10.888886153697968 C 1.9950714111328125 10.888886153697968 6.3321533203125 6.228082716464996 6.3321533203125 6.228082716464996 C 6.394752502441406 6.1621270179748535 6.425422668457031 6.085491836071014 6.425422668457031 5.998473823070526 C 6.425422668457031 5.998473823070526 6.425422668457031 5.998473823070526 6.425422668457031 5.998473823070526 Z M 6.425422668457031 5.998473823070526 C 6.425422668457031 5.998473823070526 6.425422668457031 5.998473823070526 6.425422668457031 5.998473823070526"/></g></svg>