<svg version="1.1" xmlns="http://www.w3.org/2000/svg" xmlns:xlink="http://www.w3.org/1999/xlink" width="8" height="13"><defs/><g><path fill="rgb(141,141,141)" stroke="none" paint-order="stroke fill markers" fill-rule="evenodd" d=" M 1.6395263671875 6.163244724273682 C 1.6395263671875 5.984866499900818 1.6992645263671875 5.806057929992676 1.8177108764648438 5.670714259147644 C 1.8177108764648438 5.670714259147644 5.559471130371094 1.3872699737548828 5.559471130371094 1.3872699737548828 C 5.7980804443359375 1.1137853860855103 6.184089660644531 1.1137853860855103 6.421783447265625 1.3872699737548828 C 6.659820556640625 1.6594635248184204 6.659820556640625 2.101213216781616 6.421783447265625 2.373621940612793 C 6.421783447265625 2.373621940612793 3.1110076904296875 6.163244724273682 3.1110076904296875 6.163244724273682 C 3.1110076904296875 6.163244724273682 6.421211242675781 9.953728199005127 6.421211242675781 9.953728199005127 C 6.659248352050781 10.225921750068665 6.659248352050781 10.66767144203186 6.421211242675781 10.940080165863037 C 6.183403015136719 11.212488889694214 5.797508239746094 11.212488889694214 5.559471130371094 10.940080165863037 C 5.559471130371094 10.940080165863037 1.8177108764648438 6.656420707702637 1.8177108764648438 6.656420707702637 C 1.6986923217773438 6.521077036857605 1.6395263671875 6.341838121414185 1.6395263671875 6.163244724273682 C 1.6395263671875 6.163244724273682 1.6395263671875 6.163244724273682 1.6395263671875 6.163244724273682 Z M 1.6395263671875 6.163244724273682 C 1.6395263671875 6.163244724273682 1.6395263671875 6.163244724273682 1.6395263671875 6.163244724273682"/></g></svg>