<svg version="1.1" xmlns="http://www.w3.org/2000/svg" xmlns:xlink="http://www.w3.org/1999/xlink" width="12" height="11"><defs/><g><path fill="rgb(141,141,141)" stroke="none" paint-order="stroke fill markers" fill-rule="evenodd" d=" M 10.836257934570312 5.624458074569702 C 10.836257934570312 5.624458074569702 7.227020263671875 2.1515570282936096 7.227020263671875 2.1515570282936096 C 7.123908996582031 2.0524808764457703 6.986579895019531 1.9973043203353882 6.8402099609375 1.9973043203353882 C 6.693611145019531 1.9973043203353882 6.556396484375 2.0524808764457703 6.453285217285156 2.1515570282936096 C 6.453285217285156 2.1515570282936096 6.125640869140625 2.466909170150757 6.125640869140625 2.466909170150757 C 6.02264404296875 2.565582573413849 5.965995788574219 2.6980868577957153 5.965995788574219 2.8390488624572754 C 5.965995788574219 2.9804136157035828 6.02264404296875 3.1169453859329224 6.125640869140625 3.2156187891960144 C 6.125640869140625 3.2156187891960144 8.231239318847656 5.246679902076721 8.231239318847656 5.246679902076721 C 8.231239318847656 5.246679902076721 1.541595458984375 5.246679902076721 1.541595458984375 5.246679902076721 C 1.23992919921875 5.246679902076721 1.0016632080078125 5.473024606704712 1.0016632080078125 5.763406336307526 C 1.0016632080078125 5.763406336307526 1.0016632080078125 6.20965176820755 1.0016632080078125 6.20965176820755 C 1.0016632080078125 6.4996307492256165 1.23992919921875 6.750140368938446 1.541595458984375 6.750140368938446 C 1.541595458984375 6.750140368938446 8.255157470703125 6.750140368938446 8.255157470703125 6.750140368938446 C 8.255157470703125 6.750140368938446 6.125755310058594 8.79207569360733 6.125755310058594 8.79207569360733 C 6.022758483886719 8.890749096870422 5.965995788574219 9.019628643989563 5.965995788574219 9.160590648651123 C 5.965995788574219 9.300747156143188 6.022758483886719 9.431640446186066 6.125755310058594 9.530716598033905 C 6.125755310058594 9.530716598033905 6.453399658203125 9.845263242721558 6.453399658203125 9.845263242721558 C 6.556396484375 9.944339394569397 6.6937255859375 9.998307704925537 6.8402099609375 9.998307704925537 C 6.9866943359375 9.998307704925537 7.1240234375 9.943533897399902 7.227020263671875 9.844457745552063 C 7.227020263671875 9.844457745552063 10.836372375488281 6.3715566992759705 10.836372375488281 6.3715566992759705 C 10.939712524414062 6.272480547428131 10.996475219726562 6.139573514461517 10.996017456054688 5.99820876121521 C 10.996360778808594 5.856844007968903 10.939712524414062 5.723936975002289 10.836257934570312 5.624458074569702 C 10.732917785644531 5.5249791741371155 10.836257934570312 5.624458074569702 10.836257934570312 5.624458074569702"/></g></svg>