<svg version="1.1" xmlns="http://www.w3.org/2000/svg" xmlns:xlink="http://www.w3.org/1999/xlink" width="12" height="11"><defs/><g><path fill="rgb(254,62,87)" stroke="none" paint-order="stroke fill markers" fill-rule="evenodd" d=" M 10.836334228515625 5.624458074569702 C 10.836334228515625 5.624458074569702 7.226982116699219 2.1515570282936096 7.226982116699219 2.1515570282936096 C 7.123985290527344 2.0524808764457703 6.986656188964844 1.9973043203353882 6.840171813964844 1.9973043203353882 C 6.693572998046875 1.9973043203353882 6.556358337402344 2.0524808764457703 6.453361511230469 2.1515570282936096 C 6.453361511230469 2.1515570282936096 6.125602722167969 2.466909170150757 6.125602722167969 2.466909170150757 C 6.0227203369140625 2.565582573413849 5.9659576416015625 2.6980868577957153 5.9659576416015625 2.8390488624572754 C 5.9659576416015625 2.9804136157035828 6.0227203369140625 3.1169453859329224 6.125602722167969 3.2156187891960144 C 6.125602722167969 3.2156187891960144 8.231315612792969 5.246679902076721 8.231315612792969 5.246679902076721 C 8.231315612792969 5.246679902076721 1.5415573120117188 5.246679902076721 1.5415573120117188 5.246679902076721 C 1.2398910522460938 5.246679902076721 1.0016250610351562 5.473024606704712 1.0016250610351562 5.763406336307526 C 1.0016250610351562 5.763406336307526 1.0016250610351562 6.20965176820755 1.0016250610351562 6.20965176820755 C 1.0016250610351562 6.4996307492256165 1.2398910522460938 6.750140368938446 1.5415573120117188 6.750140368938446 C 1.5415573120117188 6.750140368938446 8.255119323730469 6.750140368938446 8.255119323730469 6.750140368938446 C 8.255119323730469 6.750140368938446 6.1257171630859375 8.79207569360733 6.1257171630859375 8.79207569360733 C 6.0227203369140625 8.890749096870422 5.966072082519531 9.019628643989563 5.966072082519531 9.160590648651123 C 5.966072082519531 9.300747156143188 6.0227203369140625 9.431640446186066 6.1257171630859375 9.530716598033905 C 6.1257171630859375 9.530716598033905 6.4534759521484375 9.845263242721558 6.4534759521484375 9.845263242721558 C 6.5564727783203125 9.944339394569397 6.693687438964844 9.998307704925537 6.8402862548828125 9.998307704925537 C 6.986656188964844 9.998307704925537 7.123985290527344 9.943533897399902 7.226982116699219 9.844457745552063 C 7.226982116699219 9.844457745552063 10.836334228515625 6.3715566992759705 10.836334228515625 6.3715566992759705 C 10.939674377441406 6.272480547428131 10.996437072753906 6.139573514461517 10.99609375 5.99820876121521 C 10.996437072753906 5.856844007968903 10.939674377441406 5.723936975002289 10.836334228515625 5.624458074569702 C 10.732879638671875 5.5249791741371155 10.836334228515625 5.624458074569702 10.836334228515625 5.624458074569702"/></g></svg>