<svg width="19" height="23"><defs/><g><path fill="rgb(254,62,87)" stroke="none" paint-order="stroke fill markers" fill-rule="evenodd" d=" M 16.998619079589844 18.293931663036346 C 16.998619079589844 18.293931663036346 15.854438781738281 5.395505487918854 15.854438781738281 5.395505487918854 C 15.829948425292969 5.108748495578766 15.588821411132812 4.892069756984711 15.306953430175781 4.892069756984711 C 15.306953430175781 4.892069756984711 12.952903747558594 4.892069756984711 12.952903747558594 4.892069756984711 C 12.920059204101562 2.7401840686798096 11.162933349609375 1.001518428325653 9.005035400390625 1.001518428325653 C 6.847251892089844 1.001518428325653 5.0900115966796875 2.7401840686798096 5.057281494140625 4.892069756984711 C 5.057281494140625 4.892069756984711 2.7032318115234375 4.892069756984711 2.7032318115234375 4.892069756984711 C 2.4173583984375 4.892069756984711 2.18023681640625 5.108748495578766 2.1557464599609375 5.395505487918854 C 2.1557464599609375 5.395505487918854 1.0113372802734375 18.293931663036346 1.0113372802734375 18.293931663036346 C 1.0113372802734375 18.310847103595734 1.0073318481445312 18.32655429840088 1.0073318481445312 18.343469738960266 C 1.0073318481445312 19.812293827533722 2.351898193359375 21.00644338130951 4.0069427490234375 21.00644338130951 C 4.0069427490234375 21.00644338130951 14.003013610839844 21.00644338130951 14.003013610839844 21.00644338130951 C 15.658287048339844 21.00644338130951 17.002853393554688 19.812293827533722 17.002853393554688 18.343469738960266 C 17.002853393554688 18.32655429840088 17.002853393554688 18.310847103595734 16.998619079589844 18.293931663036346 C 16.998619079589844 18.293931663036346 16.998619079589844 18.293931663036346 16.998619079589844 18.293931663036346 Z M 9.005035400390625 2.1062577962875366 C 10.553878784179688 2.1062577962875366 11.816848754882812 3.350348174571991 11.849349975585938 4.892069756984711 C 11.849349975585938 4.892069756984711 6.160606384277344 4.892069756984711 6.160606384277344 4.892069756984711 C 6.193336486816406 3.350348174571991 7.456077575683594 2.1062577962875366 9.005035400390625 2.1062577962875366 C 9.005035400390625 2.1062577962875366 9.005035400390625 2.1062577962875366 9.005035400390625 2.1062577962875366 Z M 14.003013610839844 19.902106761932373 C 14.003013610839844 19.902106761932373 4.0069427490234375 19.902106761932373 4.0069427490234375 19.902106761932373 C 2.9688491821289062 19.902106761932373 2.1272506713867188 19.214614927768707 2.1108856201171875 18.368037402629852 C 2.1108856201171875 18.368037402629852 3.2059707641601562 6.000836610794067 3.2059707641601562 6.000836610794067 C 3.2059707641601562 6.000836610794067 5.05316162109375 6.000836610794067 5.05316162109375 6.000836610794067 C 5.05316162109375 6.000836610794067 5.05316162109375 7.677881717681885 5.05316162109375 7.677881717681885 C 5.05316162109375 7.984776139259338 5.298408508300781 8.2304527759552 5.604881286621094 8.2304527759552 C 5.911468505859375 8.2304527759552 6.156715393066406 7.984776139259338 6.156715393066406 7.677881717681885 C 6.156715393066406 7.677881717681885 6.156715393066406 6.000836610794067 6.156715393066406 6.000836610794067 C 6.156715393066406 6.000836610794067 11.849349975585938 6.000836610794067 11.849349975585938 6.000836610794067 C 11.849349975585938 6.000836610794067 11.849349975585938 7.677881717681885 11.849349975585938 7.677881717681885 C 11.849349975585938 7.984776139259338 12.094596862792969 8.2304527759552 12.401069641113281 8.2304527759552 C 12.707542419433594 8.2304527759552 12.952903747558594 7.984776139259338 12.952903747558594 7.677881717681885 C 12.952903747558594 7.677881717681885 12.952903747558594 6.000836610794067 12.952903747558594 6.000836610794067 C 12.952903747558594 6.000836610794067 14.800094604492188 6.000836610794067 14.800094604492188 6.000836610794067 C 14.800094604492188 6.000836610794067 15.899299621582031 18.368037402629852 15.899299621582031 18.368037402629852 C 15.8829345703125 19.214614927768707 15.037101745605469 19.902106761932373 14.003013610839844 19.902106761932373 C 14.003013610839844 19.902106761932373 14.003013610839844 19.902106761932373 14.003013610839844 19.902106761932373 Z M 14.003013610839844 19.902106761932373 C 14.003013610839844 19.902106761932373 14.003013610839844 19.902106761932373 14.003013610839844 19.902106761932373"/></g></svg>