<svg version="1.1" xmlns="http://www.w3.org/2000/svg" xmlns:xlink="http://www.w3.org/1999/xlink" width="18" height="19"><defs/><g><path fill="rgb(254,62,87)" stroke="none" paint-order="stroke fill markers" fill-rule="evenodd" d=" M 15.124984741210938 3.2495977878570557 C 15.124984741210938 3.2495977878570557 14.37493896484375 3.2495977878570557 14.37493896484375 3.2495977878570557 C 14.37493896484375 3.2495977878570557 14.37493896484375 1.9997012615203857 14.37493896484375 1.9997012615203857 C 14.37493896484375 1.9997012615203857 13.124900817871094 1.9997012615203857 13.124900817871094 1.9997012615203857 C 13.124900817871094 1.9997012615203857 13.124900817871094 3.2495977878570557 13.124900817871094 3.2495977878570557 C 13.124900817871094 3.2495977878570557 4.874969482421875 3.2495977878570557 4.874969482421875 3.2495977878570557 C 4.874969482421875 3.2495977878570557 4.874969482421875 1.9997012615203857 4.874969482421875 1.9997012615203857 C 4.874969482421875 1.9997012615203857 3.6249313354492188 1.9997012615203857 3.6249313354492188 1.9997012615203857 C 3.6249313354492188 1.9997012615203857 3.6249313354492188 3.2495977878570557 3.6249313354492188 3.2495977878570557 C 3.6249313354492188 3.2495977878570557 2.875 3.2495977878570557 2.875 3.2495977878570557 C 1.8410263061523438 3.2495977878570557 1 4.090698480606079 1 5.12466025352478 C 1 5.12466025352478 1 16.124707460403442 1 16.124707460403442 C 1 17.158669233322144 1.8410263061523438 17.999552249908447 2.875 17.999552249908447 C 2.875 17.999552249908447 15.124984741210938 17.999552249908447 15.124984741210938 17.999552249908447 C 16.158843994140625 17.999552249908447 16.999984741210938 17.158669233322144 16.999984741210938 16.124707460403442 C 16.999984741210938 16.124707460403442 16.999984741210938 5.12466025352478 16.999984741210938 5.12466025352478 C 16.999984741210938 4.090698480606079 16.158843994140625 3.2495977878570557 15.124984741210938 3.2495977878570557 Z M 2.875 4.499711990356445 C 2.875 4.499711990356445 3.6249313354492188 4.499711990356445 3.6249313354492188 4.499711990356445 C 3.6249313354492188 4.499711990356445 3.6249313354492188 5.749608516693115 3.6249313354492188 5.749608516693115 C 3.6249313354492188 5.749608516693115 4.874969482421875 5.749608516693115 4.874969482421875 5.749608516693115 C 4.874969482421875 5.749608516693115 4.874969482421875 4.499711990356445 4.874969482421875 4.499711990356445 C 4.874969482421875 4.499711990356445 13.124900817871094 4.499711990356445 13.124900817871094 4.499711990356445 C 13.124900817871094 4.499711990356445 13.124900817871094 5.749608516693115 13.124900817871094 5.749608516693115 C 13.124900817871094 5.749608516693115 14.37493896484375 5.749608516693115 14.37493896484375 5.749608516693115 C 14.37493896484375 5.749608516693115 14.37493896484375 4.499711990356445 14.37493896484375 4.499711990356445 C 14.37493896484375 4.499711990356445 15.124984741210938 4.499711990356445 15.124984741210938 4.499711990356445 C 15.469566345214844 4.499711990356445 15.749946594238281 4.780078887939453 15.749946594238281 5.12466025352478 C 15.749946594238281 5.12466025352478 15.749946594238281 6.624666690826416 15.749946594238281 6.624666690826416 C 15.749946594238281 6.624666690826416 2.2499237060546875 6.624666690826416 2.2499237060546875 6.624666690826416 C 2.2499237060546875 6.624666690826416 2.2499237060546875 5.12466025352478 2.2499237060546875 5.12466025352478 C 2.2499237060546875 4.780078887939453 2.530303955078125 4.499711990356445 2.875 4.499711990356445 Z M 15.124984741210938 16.749873399734497 C 15.124984741210938 16.749873399734497 2.875 16.749873399734497 2.875 16.749873399734497 C 2.530303955078125 16.749873399734497 2.2499237060546875 16.46928882598877 2.2499237060546875 16.124707460403442 C 2.2499237060546875 16.124707460403442 2.2499237060546875 7.874563217163086 2.2499237060546875 7.874563217163086 C 2.2499237060546875 7.874563217163086 15.749946594238281 7.874563217163086 15.749946594238281 7.874563217163086 C 15.749946594238281 7.874563217163086 15.749946594238281 16.124707460403442 15.749946594238281 16.124707460403442 C 15.749946594238281 16.46928882598877 15.469566345214844 16.749873399734497 15.124984741210938 16.749873399734497 Z M 3.3749923706054688 9.187150478363037 C 3.3749923706054688 9.187150478363037 4.624916076660156 9.187150478363037 4.624916076660156 9.187150478363037 C 4.624916076660156 9.187150478363037 4.624916076660156 10.437264680862427 4.624916076660156 10.437264680862427 C 4.624916076660156 10.437264680862427 3.3749923706054688 10.437264680862427 3.3749923706054688 10.437264680862427 C 3.3749923706054688 10.437264680862427 3.3749923706054688 9.187150478363037 3.3749923706054688 9.187150478363037 Z M 5.8749542236328125 9.187150478363037 C 5.8749542236328125 9.187150478363037 7.124992370605469 9.187150478363037 7.124992370605469 9.187150478363037 C 7.124992370605469 9.187150478363037 7.124992370605469 10.437264680862427 7.124992370605469 10.437264680862427 C 7.124992370605469 10.437264680862427 5.8749542236328125 10.437264680862427 5.8749542236328125 10.437264680862427 C 5.8749542236328125 10.437264680862427 5.8749542236328125 9.187150478363037 5.8749542236328125 9.187150478363037 Z M 8.374916076660156 9.187150478363037 C 8.374916076660156 9.187150478363037 9.624954223632812 9.187150478363037 9.624954223632812 9.187150478363037 C 9.624954223632812 9.187150478363037 9.624954223632812 10.437264680862427 9.624954223632812 10.437264680862427 C 9.624954223632812 10.437264680862427 8.374916076660156 10.437264680862427 8.374916076660156 10.437264680862427 C 8.374916076660156 10.437264680862427 8.374916076660156 9.187150478363037 8.374916076660156 9.187150478363037 Z M 10.874992370605469 9.187150478363037 C 10.874992370605469 9.187150478363037 12.124916076660156 9.187150478363037 12.124916076660156 9.187150478363037 C 12.124916076660156 9.187150478363037 12.124916076660156 10.437264680862427 12.124916076660156 10.437264680862427 C 12.124916076660156 10.437264680862427 10.874992370605469 10.437264680862427 10.874992370605469 10.437264680862427 C 10.874992370605469 10.437264680862427 10.874992370605469 9.187150478363037 10.874992370605469 9.187150478363037 Z M 13.374954223632812 9.187150478363037 C 13.374954223632812 9.187150478363037 14.624992370605469 9.187150478363037 14.624992370605469 9.187150478363037 C 14.624992370605469 9.187150478363037 14.624992370605469 10.437264680862427 14.624992370605469 10.437264680862427 C 14.624992370605469 10.437264680862427 13.374954223632812 10.437264680862427 13.374954223632812 10.437264680862427 C 13.374954223632812 10.437264680862427 13.374954223632812 9.187150478363037 13.374954223632812 9.187150478363037 Z M 3.3749923706054688 11.687161207199097 C 3.3749923706054688 11.687161207199097 4.624916076660156 11.687161207199097 4.624916076660156 11.687161207199097 C 4.624916076660156 11.687161207199097 4.624916076660156 12.937275409698486 4.624916076660156 12.937275409698486 C 4.624916076660156 12.937275409698486 3.3749923706054688 12.937275409698486 3.3749923706054688 12.937275409698486 C 3.3749923706054688 12.937275409698486 3.3749923706054688 11.687161207199097 3.3749923706054688 11.687161207199097 Z M 5.8749542236328125 11.687161207199097 C 5.8749542236328125 11.687161207199097 7.124992370605469 11.687161207199097 7.124992370605469 11.687161207199097 C 7.124992370605469 11.687161207199097 7.124992370605469 12.937275409698486 7.124992370605469 12.937275409698486 C 7.124992370605469 12.937275409698486 5.8749542236328125 12.937275409698486 5.8749542236328125 12.937275409698486 C 5.8749542236328125 12.937275409698486 5.8749542236328125 11.687161207199097 5.8749542236328125 11.687161207199097 Z M 8.374916076660156 11.687161207199097 C 8.374916076660156 11.687161207199097 9.624954223632812 11.687161207199097 9.624954223632812 11.687161207199097 C 9.624954223632812 11.687161207199097 9.624954223632812 12.937275409698486 9.624954223632812 12.937275409698486 C 9.624954223632812 12.937275409698486 8.374916076660156 12.937275409698486 8.374916076660156 12.937275409698486 C 8.374916076660156 12.937275409698486 8.374916076660156 11.687161207199097 8.374916076660156 11.687161207199097 Z M 10.874992370605469 11.687161207199097 C 10.874992370605469 11.687161207199097 12.124916076660156 11.687161207199097 12.124916076660156 11.687161207199097 C 12.124916076660156 11.687161207199097 12.124916076660156 12.937275409698486 12.124916076660156 12.937275409698486 C 12.124916076660156 12.937275409698486 10.874992370605469 12.937275409698486 10.874992370605469 12.937275409698486 C 10.874992370605469 12.937275409698486 10.874992370605469 11.687161207199097 10.874992370605469 11.687161207199097 Z M 3.3749923706054688 14.187171936035156 C 3.3749923706054688 14.187171936035156 4.624916076660156 14.187171936035156 4.624916076660156 14.187171936035156 C 4.624916076660156 14.187171936035156 4.624916076660156 15.437286138534546 4.624916076660156 15.437286138534546 C 4.624916076660156 15.437286138534546 3.3749923706054688 15.437286138534546 3.3749923706054688 15.437286138534546 C 3.3749923706054688 15.437286138534546 3.3749923706054688 14.187171936035156 3.3749923706054688 14.187171936035156 Z M 5.8749542236328125 14.187171936035156 C 5.8749542236328125 14.187171936035156 7.124992370605469 14.187171936035156 7.124992370605469 14.187171936035156 C 7.124992370605469 14.187171936035156 7.124992370605469 15.437286138534546 7.124992370605469 15.437286138534546 C 7.124992370605469 15.437286138534546 5.8749542236328125 15.437286138534546 5.8749542236328125 15.437286138534546 C 5.8749542236328125 15.437286138534546 5.8749542236328125 14.187171936035156 5.8749542236328125 14.187171936035156 Z M 8.374916076660156 14.187171936035156 C 8.374916076660156 14.187171936035156 9.624954223632812 14.187171936035156 9.624954223632812 14.187171936035156 C 9.624954223632812 14.187171936035156 9.624954223632812 15.437286138534546 9.624954223632812 15.437286138534546 C 9.624954223632812 15.437286138534546 8.374916076660156 15.437286138534546 8.374916076660156 15.437286138534546 C 8.374916076660156 15.437286138534546 8.374916076660156 14.187171936035156 8.374916076660156 14.187171936035156 Z M 10.874992370605469 14.187171936035156 C 10.874992370605469 14.187171936035156 12.124916076660156 14.187171936035156 12.124916076660156 14.187171936035156 C 12.124916076660156 14.187171936035156 12.124916076660156 15.437286138534546 12.124916076660156 15.437286138534546 C 12.124916076660156 15.437286138534546 10.874992370605469 15.437286138534546 10.874992370605469 15.437286138534546 C 10.874992370605469 15.437286138534546 10.874992370605469 14.187171936035156 10.874992370605469 14.187171936035156 Z M 13.374954223632812 11.687161207199097 C 13.374954223632812 11.687161207199097 14.624992370605469 11.687161207199097 14.624992370605469 11.687161207199097 C 14.624992370605469 11.687161207199097 14.624992370605469 12.937275409698486 14.624992370605469 12.937275409698486 C 14.624992370605469 12.937275409698486 13.374954223632812 12.937275409698486 13.374954223632812 12.937275409698486 C 13.374954223632812 12.937275409698486 13.374954223632812 11.687161207199097 13.374954223632812 11.687161207199097 Z"/></g></svg>