<svg version="1.1" xmlns="http://www.w3.org/2000/svg" xmlns:xlink="http://www.w3.org/1999/xlink" width="19" height="19"><defs/><g><path fill="rgb(254,62,87)" stroke="none" paint-order="stroke fill markers" fill-rule="evenodd" d=" M 16.124900817871094 3.249349355697632 C 16.124900817871094 3.249349355697632 15.374969482421875 3.249349355697632 15.374969482421875 3.249349355697632 C 15.374969482421875 3.249349355697632 15.374969482421875 1.9991704225540161 15.374969482421875 1.9991704225540161 C 15.374969482421875 1.9991704225540161 14.124931335449219 1.9991704225540161 14.124931335449219 1.9991704225540161 C 14.124931335449219 1.9991704225540161 14.124931335449219 3.249349355697632 14.124931335449219 3.249349355697632 C 14.124931335449219 3.249349355697632 5.875 3.249349355697632 5.875 3.249349355697632 C 5.875 3.249349355697632 5.875 1.9991704225540161 5.875 1.9991704225540161 C 5.875 1.9991704225540161 4.624961853027344 1.9991704225540161 4.624961853027344 1.9991704225540161 C 4.624961853027344 1.9991704225540161 4.624961853027344 3.249349355697632 4.624961853027344 3.249349355697632 C 4.624961853027344 3.249349355697632 3.8749160766601562 3.249349355697632 3.8749160766601562 3.249349355697632 C 2.8410568237304688 3.249349355697632 1.9999160766601562 4.090475082397461 1.9999160766601562 5.124272465705872 C 1.9999160766601562 5.124272465705872 1.9999160766601562 16.124281764030457 1.9999160766601562 16.124281764030457 C 1.9999160766601562 17.158079147338867 2.8410568237304688 17.998974680900574 3.8749160766601562 17.998974680900574 C 3.8749160766601562 17.998974680900574 16.124900817871094 17.998974680900574 16.124900817871094 17.998974680900574 C 17.15876007080078 17.998974680900574 17.999900817871094 17.158079147338867 17.999900817871094 16.124281764030457 C 17.999900817871094 16.124281764030457 17.999900817871094 5.124272465705872 17.999900817871094 5.124272465705872 C 17.999900817871094 4.090475082397461 17.15876007080078 3.249349355697632 16.124900817871094 3.249349355697632 Z M 3.8749160766601562 4.499298095703125 C 3.8749160766601562 4.499298095703125 4.624961853027344 4.499298095703125 4.624961853027344 4.499298095703125 C 4.624961853027344 4.499298095703125 4.624961853027344 5.749016642570496 4.624961853027344 5.749016642570496 C 4.624961853027344 5.749016642570496 5.875 5.749016642570496 5.875 5.749016642570496 C 5.875 5.749016642570496 5.875 4.499298095703125 5.875 4.499298095703125 C 5.875 4.499298095703125 14.124931335449219 4.499298095703125 14.124931335449219 4.499298095703125 C 14.124931335449219 4.499298095703125 14.124931335449219 5.749016642570496 14.124931335449219 5.749016642570496 C 14.124931335449219 5.749016642570496 15.374969482421875 5.749016642570496 15.374969482421875 5.749016642570496 C 15.374969482421875 5.749016642570496 15.374969482421875 4.499298095703125 15.374969482421875 4.499298095703125 C 15.374969482421875 4.499298095703125 16.124900817871094 4.499298095703125 16.124900817871094 4.499298095703125 C 16.46959686279297 4.499298095703125 16.749977111816406 4.779673337936401 16.749977111816406 5.124272465705872 C 16.749977111816406 5.124272465705872 16.749977111816406 6.624441146850586 16.749977111816406 6.624441146850586 C 16.749977111816406 6.624441146850586 3.2499542236328125 6.624441146850586 3.2499542236328125 6.624441146850586 C 3.2499542236328125 6.624441146850586 3.2499542236328125 5.124272465705872 3.2499542236328125 5.124272465705872 C 3.2499542236328125 4.779673337936401 3.53033447265625 4.499298095703125 3.8749160766601562 4.499298095703125 Z M 16.124900817871094 16.749256134033203 C 16.124900817871094 16.749256134033203 3.8749160766601562 16.749256134033203 3.8749160766601562 16.749256134033203 C 3.53033447265625 16.749256134033203 3.2499542236328125 16.468880891799927 3.2499542236328125 16.124281764030457 C 3.2499542236328125 16.124281764030457 3.2499542236328125 7.8741596937179565 3.2499542236328125 7.8741596937179565 C 3.2499542236328125 7.8741596937179565 16.749977111816406 7.8741596937179565 16.749977111816406 7.8741596937179565 C 16.749977111816406 7.8741596937179565 16.749977111816406 16.124281764030457 16.749977111816406 16.124281764030457 C 16.749977111816406 16.468880891799927 16.46959686279297 16.749256134033203 16.124900817871094 16.749256134033203 Z M 4.374908447265625 9.186720967292786 C 4.374908447265625 9.186720967292786 5.624946594238281 9.186720967292786 5.624946594238281 9.186720967292786 C 5.624946594238281 9.186720967292786 5.624946594238281 10.436899900436401 5.624946594238281 10.436899900436401 C 5.624946594238281 10.436899900436401 4.374908447265625 10.436899900436401 4.374908447265625 10.436899900436401 C 4.374908447265625 10.436899900436401 4.374908447265625 9.186720967292786 4.374908447265625 9.186720967292786 Z M 6.8749847412109375 9.186720967292786 C 6.8749847412109375 9.186720967292786 8.124908447265625 9.186720967292786 8.124908447265625 9.186720967292786 C 8.124908447265625 9.186720967292786 8.124908447265625 10.436899900436401 8.124908447265625 10.436899900436401 C 8.124908447265625 10.436899900436401 6.8749847412109375 10.436899900436401 6.8749847412109375 10.436899900436401 C 6.8749847412109375 10.436899900436401 6.8749847412109375 9.186720967292786 6.8749847412109375 9.186720967292786 Z M 9.374946594238281 9.186720967292786 C 9.374946594238281 9.186720967292786 10.624984741210938 9.186720967292786 10.624984741210938 9.186720967292786 C 10.624984741210938 9.186720967292786 10.624984741210938 10.436899900436401 10.624984741210938 10.436899900436401 C 10.624984741210938 10.436899900436401 9.374946594238281 10.436899900436401 9.374946594238281 10.436899900436401 C 9.374946594238281 10.436899900436401 9.374946594238281 9.186720967292786 9.374946594238281 9.186720967292786 Z M 11.874908447265625 9.186720967292786 C 11.874908447265625 9.186720967292786 13.124946594238281 9.186720967292786 13.124946594238281 9.186720967292786 C 13.124946594238281 9.186720967292786 13.124946594238281 10.436899900436401 13.124946594238281 10.436899900436401 C 13.124946594238281 10.436899900436401 11.874908447265625 10.436899900436401 11.874908447265625 10.436899900436401 C 11.874908447265625 10.436899900436401 11.874908447265625 9.186720967292786 11.874908447265625 9.186720967292786 Z M 14.374984741210938 9.186720967292786 C 14.374984741210938 9.186720967292786 15.624908447265625 9.186720967292786 15.624908447265625 9.186720967292786 C 15.624908447265625 9.186720967292786 15.624908447265625 10.436899900436401 15.624908447265625 10.436899900436401 C 15.624908447265625 10.436899900436401 14.374984741210938 10.436899900436401 14.374984741210938 10.436899900436401 C 14.374984741210938 10.436899900436401 14.374984741210938 9.186720967292786 14.374984741210938 9.186720967292786 Z M 4.374908447265625 11.686848640441895 C 4.374908447265625 11.686848640441895 5.624946594238281 11.686848640441895 5.624946594238281 11.686848640441895 C 5.624946594238281 11.686848640441895 5.624946594238281 12.936567187309265 5.624946594238281 12.936567187309265 C 5.624946594238281 12.936567187309265 4.374908447265625 12.936567187309265 4.374908447265625 12.936567187309265 C 4.374908447265625 12.936567187309265 4.374908447265625 11.686848640441895 4.374908447265625 11.686848640441895 Z M 6.8749847412109375 11.686848640441895 C 6.8749847412109375 11.686848640441895 8.124908447265625 11.686848640441895 8.124908447265625 11.686848640441895 C 8.124908447265625 11.686848640441895 8.124908447265625 12.936567187309265 8.124908447265625 12.936567187309265 C 8.124908447265625 12.936567187309265 6.8749847412109375 12.936567187309265 6.8749847412109375 12.936567187309265 C 6.8749847412109375 12.936567187309265 6.8749847412109375 11.686848640441895 6.8749847412109375 11.686848640441895 Z M 9.374946594238281 11.686848640441895 C 9.374946594238281 11.686848640441895 10.624984741210938 11.686848640441895 10.624984741210938 11.686848640441895 C 10.624984741210938 11.686848640441895 10.624984741210938 12.936567187309265 10.624984741210938 12.936567187309265 C 10.624984741210938 12.936567187309265 9.374946594238281 12.936567187309265 9.374946594238281 12.936567187309265 C 9.374946594238281 12.936567187309265 9.374946594238281 11.686848640441895 9.374946594238281 11.686848640441895 Z M 11.874908447265625 11.686848640441895 C 11.874908447265625 11.686848640441895 13.124946594238281 11.686848640441895 13.124946594238281 11.686848640441895 C 13.124946594238281 11.686848640441895 13.124946594238281 12.936567187309265 13.124946594238281 12.936567187309265 C 13.124946594238281 12.936567187309265 11.874908447265625 12.936567187309265 11.874908447265625 12.936567187309265 C 11.874908447265625 12.936567187309265 11.874908447265625 11.686848640441895 11.874908447265625 11.686848640441895 Z M 4.374908447265625 14.186976313591003 C 4.374908447265625 14.186976313591003 5.624946594238281 14.186976313591003 5.624946594238281 14.186976313591003 C 5.624946594238281 14.186976313591003 5.624946594238281 15.436925053596497 5.624946594238281 15.436925053596497 C 5.624946594238281 15.436925053596497 4.374908447265625 15.436925053596497 4.374908447265625 15.436925053596497 C 4.374908447265625 15.436925053596497 4.374908447265625 14.186976313591003 4.374908447265625 14.186976313591003 Z M 6.8749847412109375 14.186976313591003 C 6.8749847412109375 14.186976313591003 8.124908447265625 14.186976313591003 8.124908447265625 14.186976313591003 C 8.124908447265625 14.186976313591003 8.124908447265625 15.436925053596497 8.124908447265625 15.436925053596497 C 8.124908447265625 15.436925053596497 6.8749847412109375 15.436925053596497 6.8749847412109375 15.436925053596497 C 6.8749847412109375 15.436925053596497 6.8749847412109375 14.186976313591003 6.8749847412109375 14.186976313591003 Z M 9.374946594238281 14.186976313591003 C 9.374946594238281 14.186976313591003 10.624984741210938 14.186976313591003 10.624984741210938 14.186976313591003 C 10.624984741210938 14.186976313591003 10.624984741210938 15.436925053596497 10.624984741210938 15.436925053596497 C 10.624984741210938 15.436925053596497 9.374946594238281 15.436925053596497 9.374946594238281 15.436925053596497 C 9.374946594238281 15.436925053596497 9.374946594238281 14.186976313591003 9.374946594238281 14.186976313591003 Z M 11.874908447265625 14.186976313591003 C 11.874908447265625 14.186976313591003 13.124946594238281 14.186976313591003 13.124946594238281 14.186976313591003 C 13.124946594238281 14.186976313591003 13.124946594238281 15.436925053596497 13.124946594238281 15.436925053596497 C 13.124946594238281 15.436925053596497 11.874908447265625 15.436925053596497 11.874908447265625 15.436925053596497 C 11.874908447265625 15.436925053596497 11.874908447265625 14.186976313591003 11.874908447265625 14.186976313591003 Z M 14.374984741210938 11.686848640441895 C 14.374984741210938 11.686848640441895 15.624908447265625 11.686848640441895 15.624908447265625 11.686848640441895 C 15.624908447265625 11.686848640441895 15.624908447265625 12.936567187309265 15.624908447265625 12.936567187309265 C 15.624908447265625 12.936567187309265 14.374984741210938 12.936567187309265 14.374984741210938 12.936567187309265 C 14.374984741210938 12.936567187309265 14.374984741210938 11.686848640441895 14.374984741210938 11.686848640441895 Z"/></g></svg>