<svg version="1.1" xmlns="http://www.w3.org/2000/svg" xmlns:xlink="http://www.w3.org/1999/xlink" width="25" height="23"><defs/><g><path fill="rgb(41,40,45)" stroke="none" paint-order="stroke fill markers" fill-rule="evenodd" d=" M 18.43560791015625 21.997177600860596 C 16.922813415527344 21.997177600860596 15.692001342773438 20.77564114332199 15.692001342773438 19.27298617362976 C 15.692001342773438 17.770733952522278 16.922813415527344 16.54839199781418 18.43560791015625 16.54839199781418 C 19.948516845703125 16.54839199781418 21.179214477539062 17.770733952522278 21.179214477539062 19.27298617362976 C 21.179214477539062 20.77564114332199 19.948516845703125 21.997177600860596 18.43560791015625 21.997177600860596 Z M 18.43560791015625 18.183148503303528 C 17.8304443359375 18.183148503303528 17.338233947753906 18.672085285186768 17.338233947753906 19.27298617362976 C 17.338233947753906 19.873484313488007 17.8304443359375 20.36322659254074 18.43560791015625 20.36322659254074 C 19.04088592529297 20.36322659254074 19.533096313476562 19.873484313488007 19.533096313476562 19.27298617362976 C 19.533096313476562 18.672085285186768 19.04088592529297 18.183148503303528 18.43560791015625 18.183148503303528 Z M 20.19158935546875 15.37679636478424 C 20.19158935546875 15.37679636478424 7.378898620605469 15.37679636478424 7.378898620605469 15.37679636478424 C 6.998039245605469 15.37679636478424 6.666961669921875 15.117829024791718 6.578269958496094 14.749314069747925 C 6.578269958496094 14.749314069747925 3.9032135009765625 3.633855879306793 3.9032135009765625 3.633855879306793 C 3.9032135009765625 3.633855879306793 1.8367538452148438 3.633855879306793 1.8367538452148438 3.633855879306793 C 1.382080078125 3.633855879306793 1.013580322265625 3.268562912940979 1.013580322265625 2.816679000854492 C 1.013580322265625 2.3651978373527527 1.382080078125 1.9995021224021912 1.8367538452148438 1.9995021224021912 C 1.8367538452148438 1.9995021224021912 4.552894592285156 1.9995021224021912 4.552894592285156 1.9995021224021912 C 4.933753967285156 1.9995021224021912 5.26483154296875 2.259274959564209 5.353523254394531 2.6265816688537598 C 5.353523254394531 2.6265816688537598 6.09429931640625 5.704386353492737 6.09429931640625 5.704386353492737 C 6.09429931640625 5.704386353492737 22.194419860839844 5.704386353492737 22.194419860839844 5.704386353492737 C 22.44756317138672 5.704386353492737 22.686630249023438 5.820377945899963 22.842498779296875 6.018127501010895 C 22.998252868652344 6.216682553291321 23.053985595703125 6.474844396114349 22.993331909179688 6.718507289886475 C 22.993331909179688 6.718507289886475 20.990501403808594 14.75616079568863 20.990501403808594 14.75616079568863 C 20.899635314941406 15.120245516300201 20.569931030273438 15.37679636478424 20.19158935546875 15.37679636478424 Z M 8.028579711914062 13.741637110710144 C 8.028579711914062 13.741637110710144 19.547630310058594 13.741637110710144 19.547630310058594 13.741637110710144 C 19.547630310058594 13.741637110710144 21.14270782470703 7.339948356151581 21.14270782470703 7.339948356151581 C 21.14270782470703 7.339948356151581 6.4877471923828125 7.339948356151581 6.4877471923828125 7.339948356151581 C 6.4877471923828125 7.339948356151581 8.028579711914062 13.741637110710144 8.028579711914062 13.741637110710144 Z M 8.476272583007812 21.997177600860596 C 6.963478088378906 21.997177600860596 5.732666015625 20.77564114332199 5.732666015625 19.27298617362976 C 5.732666015625 17.770733952522278 6.963478088378906 16.54839199781418 8.476272583007812 16.54839199781418 C 9.989181518554688 16.54839199781418 11.219879150390625 17.770733952522278 11.219879150390625 19.27298617362976 C 11.219879150390625 20.77564114332199 9.989181518554688 21.997177600860596 8.476272583007812 21.997177600860596 Z M 8.476272583007812 18.183148503303528 C 7.8711090087890625 18.183148503303528 7.378898620605469 18.672085285186768 7.378898620605469 19.27298617362976 C 7.378898620605469 19.873484313488007 7.8711090087890625 20.36322659254074 8.476272583007812 20.36322659254074 C 9.081550598144531 20.36322659254074 9.573760986328125 19.873484313488007 9.573760986328125 19.27298617362976 C 9.573760986328125 18.672085285186768 9.081550598144531 18.183148503303528 8.476272583007812 18.183148503303528 Z"/></g></svg>