<svg version="1.1" xmlns="http://www.w3.org/2000/svg" xmlns:xlink="http://www.w3.org/1999/xlink" width="23" height="23"><defs/><g><path fill="rgb(254,62,87)" stroke="none" paint-order="stroke fill markers" fill-rule="evenodd" d=" M 19.0709228515625 4.479246139526367 C 17.18218994140625 2.5906448364257812 14.671012878417969 1.5506086349487305 11.999961853027344 1.5506086349487305 C 9.32879638671875 1.5506086349487305 6.8175048828125 2.5906448364257812 4.92877197265625 4.479246139526367 C 3.0400390625 6.368089199066162 1.9998855590820312 8.879213333129883 1.9998855590820312 11.550380229949951 C 1.9998855590820312 14.22130537033081 3.0400390625 16.73242950439453 4.92877197265625 18.621514320373535 C 6.8175048828125 20.51011562347412 9.32879638671875 21.55039358139038 11.999961853027344 21.55039358139038 C 14.671012878417969 21.55039358139038 17.18218994140625 20.51011562347412 19.0709228515625 18.621514320373535 C 20.95965576171875 16.73242950439453 21.999923706054688 14.22130537033081 21.999923706054688 11.550380229949951 C 21.999923706054688 8.879213333129883 20.95965576171875 6.368089199066162 19.0709228515625 4.479246139526367 Z M 11.999961853027344 20.378358364105225 C 7.132102966308594 20.378358364105225 3.1717605590820312 16.41814613342285 3.1717605590820312 11.550380229949951 C 3.1717605590820312 6.682614326477051 7.132102966308594 2.7221603393554688 11.999961853027344 2.7221603393554688 C 16.867706298828125 2.7221603393554688 20.828048706054688 6.682614326477051 20.828048706054688 11.550380229949951 C 20.828048706054688 16.41814613342285 16.867706298828125 20.378358364105225 11.999961853027344 20.378358364105225 Z M 15.948860168457031 8.34178876876831 C 15.948860168457031 8.34178876876831 10.774642944335938 13.515860080718994 10.774642944335938 13.515860080718994 C 10.774642944335938 13.515860080718994 8.050949096679688 10.792232036590576 8.050949096679688 10.792232036590576 C 7.822181701660156 10.563288688659668 7.451164245605469 10.563288688659668 7.222282409667969 10.792232036590576 C 6.9935150146484375 11.021175384521484 6.9935150146484375 11.392271518707275 7.222282409667969 11.620731353759766 C 7.222282409667969 11.620731353759766 10.360366821289062 14.758971691131592 10.360366821289062 14.758971691131592 C 10.474807739257812 14.873322486877441 10.624725341796875 14.93061876296997 10.774642944335938 14.93061876296997 C 10.924560546875 14.93061876296997 11.074592590332031 14.873322486877441 11.188919067382812 14.758971691131592 C 11.188919067382812 14.758971691131592 16.77741241455078 9.1702880859375 16.77741241455078 9.1702880859375 C 17.00629425048828 8.94182825088501 17.00629425048828 8.570732116699219 16.77741241455078 8.34178876876831 C 16.54864501953125 8.112845420837402 16.177627563476562 8.112845420837402 15.948860168457031 8.34178876876831 Z"/></g></svg>