<svg version="1.1" xmlns="http://www.w3.org/2000/svg" xmlns:xlink="http://www.w3.org/1999/xlink" width="23" height="23"><defs/><g><path fill="rgb(141,141,141)" stroke="none" paint-order="stroke fill markers" fill-rule="evenodd" d=" M 19.8953857421875 7.26145726442337 C 19.481224060058594 7.461623311042786 19.307846069335938 7.959823310375214 19.50823211669922 8.374654352664948 C 20.05571746826172 9.505572378635406 20.333236694335938 10.72428959608078 20.333236694335938 11.999391615390778 C 20.333236694335938 16.59394747018814 16.59490966796875 20.332259833812714 11.999992370605469 20.332259833812714 C 7.404960632324219 20.332259833812714 3.6666336059570312 16.59394747018814 3.6666336059570312 11.999391615390778 C 3.6666336059570312 7.40403026342392 7.404960632324219 3.6661206483840942 11.999992370605469 3.6661206483840942 C 13.904060363769531 3.6661206483840942 15.692771911621094 4.2875617146492 17.173294067382812 5.463184833526611 C 17.53240966796875 5.7503445744514465 18.057579040527344 5.690335035324097 18.344139099121094 5.329472303390503 C 18.630699157714844 4.969415068626404 18.57073211669922 4.4450364112854 18.210243225097656 4.159084916114807 C 16.45758056640625 2.7659775614738464 14.251960754394531 1.9987415075302124 11.999992370605469 1.9987415075302124 C 6.486228942871094 1.9987415075302124 1.9999160766601562 6.485360741615295 1.9999160766601562 11.999391615390778 C 1.9999160766601562 17.512616991996765 6.486228942871094 21.9988334774971 11.999992370605469 21.9988334774971 C 17.513641357421875 21.9988334774971 21.999954223632812 17.512616991996765 21.999954223632812 11.999391615390778 C 21.999954223632812 10.47096073627472 21.666358947753906 9.007372379302979 21.008323669433594 7.6484986543655396 C 20.808395385742188 7.233667612075806 20.30828857421875 7.060888469219208 19.8953857421875 7.26145726442337 C 19.8953857421875 7.26145726442337 19.8953857421875 7.26145726442337 19.8953857421875 7.26145726442337 Z M 19.8953857421875 7.26145726442337 C 19.8953857421875 7.26145726442337 19.8953857421875 7.26145726442337 19.8953857421875 7.26145726442337 M 11.999992370605469 5.331888794898987 C 11.539939880371094 5.331888794898987 11.166633605957031 5.705639481544495 11.166633605957031 6.165578365325928 C 11.166633605957031 6.165578365325928 11.166633605957031 11.999391615390778 11.166633605957031 11.999391615390778 C 11.166633605957031 12.458525002002716 11.539939880371094 12.832275688648224 11.999992370605469 12.832275688648224 C 11.999992370605469 12.832275688648224 16.166671752929688 12.832275688648224 16.166671752929688 12.832275688648224 C 16.626609802246094 12.832275688648224 16.999916076660156 12.458525002002716 16.999916076660156 11.999391615390778 C 16.999916076660156 11.539049983024597 16.626609802246094 11.165702044963837 16.166671752929688 11.165702044963837 C 16.166671752929688 11.165702044963837 12.833236694335938 11.165702044963837 12.833236694335938 11.165702044963837 C 12.833236694335938 11.165702044963837 12.833236694335938 6.165578365325928 12.833236694335938 6.165578365325928 C 12.833236694335938 5.705639481544495 12.459930419921875 5.331888794898987 11.999992370605469 5.331888794898987 C 11.999992370605469 5.331888794898987 11.999992370605469 5.331888794898987 11.999992370605469 5.331888794898987 Z M 11.999992370605469 5.331888794898987 C 11.999992370605469 5.331888794898987 11.999992370605469 5.331888794898987 11.999992370605469 5.331888794898987"/></g></svg>