<svg version="1.1" xmlns="http://www.w3.org/2000/svg" xmlns:xlink="http://www.w3.org/1999/xlink" width="19" height="19"><defs/><g><path fill="rgb(254,62,87)" stroke="none" paint-order="stroke fill markers" fill-rule="evenodd" d=" M 17.374916076660156 1.9997012615203857 C 17.374916076660156 1.9997012615203857 2.624969482421875 1.9997012615203857 2.624969482421875 1.9997012615203857 C 2.2797012329101562 1.9997012615203857 1.9998931884765625 2.279632806777954 1.9998931884765625 2.6246495246887207 C 1.9998931884765625 2.6246495246887207 1.9998931884765625 14.999539375305176 1.9998931884765625 14.999539375305176 C 1.9998931884765625 15.344773769378662 2.2797012329101562 15.62448763847351 2.624969482421875 15.62448763847351 C 2.624969482421875 15.62448763847351 8.155441284179688 15.62448763847351 8.155441284179688 15.62448763847351 C 8.155441284179688 15.62448763847351 9.471511840820312 17.708519220352173 9.471511840820312 17.708519220352173 C 9.585952758789062 17.889625787734985 9.785537719726562 17.999552249908447 9.999885559082031 17.999552249908447 C 10.214347839355469 17.999552249908447 10.413818359375 17.889625787734985 10.528373718261719 17.708519220352173 C 10.528373718261719 17.708519220352173 11.844444274902344 15.62448763847351 11.844444274902344 15.62448763847351 C 11.844444274902344 15.62448763847351 17.374916076660156 15.62448763847351 17.374916076660156 15.62448763847351 C 17.720069885253906 15.62448763847351 17.9998779296875 15.344773769378662 17.9998779296875 14.999539375305176 C 17.9998779296875 14.999539375305176 17.9998779296875 2.6246495246887207 17.9998779296875 2.6246495246887207 C 17.9998779296875 2.279632806777954 17.720069885253906 1.9997012615203857 17.374916076660156 1.9997012615203857 Z M 16.749954223632812 14.37480878829956 C 16.749954223632812 14.37480878829956 11.499977111816406 14.37480878829956 11.499977111816406 14.37480878829956 C 11.285514831542969 14.37480878829956 11.086044311523438 14.484735250473022 10.971488952636719 14.665841817855835 C 10.971488952636719 14.665841817855835 9.999885559082031 16.204376935958862 9.999885559082031 16.204376935958862 C 9.999885559082031 16.204376935958862 9.028396606445312 14.665841817855835 9.028396606445312 14.665841817855835 C 8.913841247558594 14.484735250473022 8.714370727539062 14.37480878829956 8.499908447265625 14.37480878829956 C 8.499908447265625 14.37480878829956 3.2499313354492188 14.37480878829956 3.2499313354492188 14.37480878829956 C 3.2499313354492188 14.37480878829956 3.2499313354492188 3.2495977878570557 3.2499313354492188 3.2495977878570557 C 3.2499313354492188 3.2495977878570557 16.749954223632812 3.2495977878570557 16.749954223632812 3.2495977878570557 C 16.749954223632812 3.2495977878570557 16.749954223632812 14.37480878829956 16.749954223632812 14.37480878829956 Z M 9.218711853027344 8.812312126159668 C 9.218711853027344 8.38066029548645 9.568443298339844 8.03085470199585 9.999885559082031 8.03085470199585 C 10.431327819824219 8.03085470199585 10.781173706054688 8.38066029548645 10.781173706054688 8.812312126159668 C 10.781173706054688 9.243746280670166 10.431327819824219 9.593551874160767 9.999885559082031 9.593551874160767 C 9.568443298339844 9.593551874160767 9.218711853027344 9.243746280670166 9.218711853027344 8.812312126159668 Z M 6.0936737060546875 8.812312126159668 C 6.0936737060546875 8.38066029548645 6.4434051513671875 8.03085470199585 6.874961853027344 8.03085470199585 C 7.306404113769531 8.03085470199585 7.656135559082031 8.38066029548645 7.656135559082031 8.812312126159668 C 7.656135559082031 9.243746280670166 7.306404113769531 9.593551874160767 6.874961853027344 9.593551874160767 C 6.4434051513671875 9.593551874160767 6.0936737060546875 9.243746280670166 6.0936737060546875 8.812312126159668 Z M 12.343635559082031 8.812312126159668 C 12.343635559082031 8.38066029548645 12.6934814453125 8.03085470199585 13.124923706054688 8.03085470199585 C 13.556365966796875 8.03085470199585 13.906211853027344 8.38066029548645 13.906211853027344 8.812312126159668 C 13.906211853027344 9.243746280670166 13.556365966796875 9.593551874160767 13.124923706054688 9.593551874160767 C 12.6934814453125 9.593551874160767 12.343635559082031 9.243746280670166 12.343635559082031 8.812312126159668 Z"/></g></svg>