<svg version="1.1" xmlns="http://www.w3.org/2000/svg" xmlns:xlink="http://www.w3.org/1999/xlink" width="18" height="18"><defs/><g><path fill="rgb(141,141,141)" stroke="none" paint-order="stroke fill markers" fill-rule="evenodd" d=" M 1.9998855590820312 5.749731540679932 C 1.9998855590820312 5.749731540679932 5.749885559082031 5.749731540679932 5.749885559082031 5.749731540679932 C 5.749885559082031 5.749731540679932 5.749885559082031 1.999847412109375 5.749885559082031 1.999847412109375 C 5.749885559082031 1.999847412109375 1.9998855590820312 1.999847412109375 1.9998855590820312 1.999847412109375 C 1.9998855590820312 1.999847412109375 1.9998855590820312 5.749731540679932 1.9998855590820312 5.749731540679932 Z M 7.624885559082031 16.99986743927002 C 7.624885559082031 16.99986743927002 11.374885559082031 16.99986743927002 11.374885559082031 16.99986743927002 C 11.374885559082031 16.99986743927002 11.374885559082031 13.249741554260254 11.374885559082031 13.249741554260254 C 11.374885559082031 13.249741554260254 7.624885559082031 13.249741554260254 7.624885559082031 13.249741554260254 C 7.624885559082031 13.249741554260254 7.624885559082031 16.99986743927002 7.624885559082031 16.99986743927002 Z M 1.9998855590820312 16.99986743927002 C 1.9998855590820312 16.99986743927002 5.749885559082031 16.99986743927002 5.749885559082031 16.99986743927002 C 5.749885559082031 16.99986743927002 5.749885559082031 13.249741554260254 5.749885559082031 13.249741554260254 C 5.749885559082031 13.249741554260254 1.9998855590820312 13.249741554260254 1.9998855590820312 13.249741554260254 C 1.9998855590820312 13.249741554260254 1.9998855590820312 16.99986743927002 1.9998855590820312 16.99986743927002 Z M 1.9998855590820312 11.37492036819458 C 1.9998855590820312 11.37492036819458 5.749885559082031 11.37492036819458 5.749885559082031 11.37492036819458 C 5.749885559082031 11.37492036819458 5.749885559082031 7.6247944831848145 5.749885559082031 7.6247944831848145 C 5.749885559082031 7.6247944831848145 1.9998855590820312 7.6247944831848145 1.9998855590820312 7.6247944831848145 C 1.9998855590820312 7.6247944831848145 1.9998855590820312 11.37492036819458 1.9998855590820312 11.37492036819458 Z M 7.624885559082031 11.37492036819458 C 7.624885559082031 11.37492036819458 11.374885559082031 11.37492036819458 11.374885559082031 11.37492036819458 C 11.374885559082031 11.37492036819458 11.374885559082031 7.6247944831848145 11.374885559082031 7.6247944831848145 C 11.374885559082031 7.6247944831848145 7.624885559082031 7.6247944831848145 7.624885559082031 7.6247944831848145 C 7.624885559082031 7.6247944831848145 7.624885559082031 11.37492036819458 7.624885559082031 11.37492036819458 Z M 13.249885559082031 1.999847412109375 C 13.249885559082031 1.999847412109375 13.249885559082031 5.749731540679932 13.249885559082031 5.749731540679932 C 13.249885559082031 5.749731540679932 16.99988555908203 5.749731540679932 16.99988555908203 5.749731540679932 C 16.99988555908203 5.749731540679932 16.99988555908203 1.999847412109375 16.99988555908203 1.999847412109375 C 16.99988555908203 1.999847412109375 13.249885559082031 1.999847412109375 13.249885559082031 1.999847412109375 Z M 7.624885559082031 5.749731540679932 C 7.624885559082031 5.749731540679932 11.374885559082031 5.749731540679932 11.374885559082031 5.749731540679932 C 11.374885559082031 5.749731540679932 11.374885559082031 1.999847412109375 11.374885559082031 1.999847412109375 C 11.374885559082031 1.999847412109375 7.624885559082031 1.999847412109375 7.624885559082031 1.999847412109375 C 7.624885559082031 1.999847412109375 7.624885559082031 5.749731540679932 7.624885559082031 5.749731540679932 Z M 13.249885559082031 11.37492036819458 C 13.249885559082031 11.37492036819458 16.99988555908203 11.37492036819458 16.99988555908203 11.37492036819458 C 16.99988555908203 11.37492036819458 16.99988555908203 7.6247944831848145 16.99988555908203 7.6247944831848145 C 16.99988555908203 7.6247944831848145 13.249885559082031 7.6247944831848145 13.249885559082031 7.6247944831848145 C 13.249885559082031 7.6247944831848145 13.249885559082031 11.37492036819458 13.249885559082031 11.37492036819458 Z M 13.249885559082031 16.99986743927002 C 13.249885559082031 16.99986743927002 16.99988555908203 16.99986743927002 16.99988555908203 16.99986743927002 C 16.99988555908203 16.99986743927002 16.99988555908203 13.249741554260254 16.99988555908203 13.249741554260254 C 16.99988555908203 13.249741554260254 13.249885559082031 13.249741554260254 13.249885559082031 13.249741554260254 C 13.249885559082031 13.249741554260254 13.249885559082031 16.99986743927002 13.249885559082031 16.99986743927002 Z"/></g></svg>