<svg version="1.1" xmlns="http://www.w3.org/2000/svg" xmlns:xlink="http://www.w3.org/1999/xlink" width="24" height="23"><defs/><g><path fill="rgb(41,40,45)" stroke="none" paint-order="stroke fill markers" fill-rule="evenodd" d=" M 21.77832794189453 6.588822245597839 C 21.096946716308594 4.169511497020721 19.095603942871094 2.7260605692863464 17.60535430908203 2.2177918553352356 C 15.902015686035156 1.6229321956634521 13.858100891113281 2.2177918553352356 12.02716064453125 3.8291889429092407 C 10.19610595703125 2.2596777081489563 8.152191162109375 1.7075093984603882 6.448966979980469 2.2596777081489563 C 4.9586029052734375 2.811443269252777 2.9573745727539062 4.2540886998176575 2.2759933471679688 6.63070809841156 C 1.807586669921875 8.201024830341339 1.7650146484375 10.747604131698608 4.234764099121094 13.845546245574951 C 5.341865539550781 15.245903074741364 7.045204162597656 17.24111956357956 8.450309753417969 18.81103354692459 C 11.133033752441406 21.825203955173492 11.558753967285156 21.99355286359787 11.941902160644531 21.99355286359787 C 11.984588623046875 21.99355286359787 11.984588623046875 21.99355286359787 12.02716064453125 21.99355286359787 C 12.02716064453125 21.99355286359787 12.069732666015625 21.99355286359787 12.069732666015625 21.99355286359787 C 12.069732666015625 21.99355286359787 12.1123046875 21.99355286359787 12.1123046875 21.99355286359787 C 12.495567321777344 21.99355286359787 12.878829956054688 21.825203955173492 15.561439514160156 18.76914769411087 C 16.966659545898438 17.15573686361313 18.669883728027344 15.160520374774933 19.77698516845703 13.802854895591736 C 22.246734619140625 10.705718278884888 22.246734619140625 8.158736228942871 21.77832794189453 6.588822245597839 Z M 18.499595642089844 12.784303724765778 C 16.54071044921875 15.245903074741364 13.176948547363281 19.10826200246811 12.02716064453125 20.169504523277283 C 10.877487182617188 19.10826200246811 7.513496398925781 15.245903074741364 5.554725646972656 12.784303724765778 C 3.9366455078125 10.790295481681824 3.3405227661132812 8.837770342826843 3.85150146484375 7.0974937081336975 C 4.362480163574219 5.315331220626831 5.85284423828125 4.2540886998176575 6.9599456787109375 3.8726857900619507 C 8.19476318359375 3.405497431755066 9.85552978515625 4.041840195655823 11.388465881347656 5.527982473373413 C 11.686470031738281 5.8244054317474365 12.1123046875 5.8666940331459045 12.452880859375 5.6540427803993225 C 12.538139343261719 5.612156927585602 12.623283386230469 5.569868326187134 12.665740966796875 5.484485626220703 C 14.198677062988281 4.041840195655823 15.85955810546875 3.405497431755066 17.094375610351562 3.8291889429092407 C 18.20147705078125 4.2540886998176575 19.691726684570312 5.315331220626831 20.20270538330078 7.0974937081336975 C 20.71368408203125 8.795078992843628 20.11756134033203 10.790295481681824 18.499595642089844 12.784303724765778 Z"/></g></svg>