<svg version="1.1" xmlns="http://www.w3.org/2000/svg" xmlns:xlink="http://www.w3.org/1999/xlink" width="20" height="19"><defs/><g><path fill="rgb(114,114,114)" stroke="none" paint-order="stroke fill markers" fill-rule="evenodd" d=" M 9.998847961425781 1.9991003274917603 C 9.998847961425781 1.9991003274917603 2.228424072265625 8.85710859298706 2.228424072265625 8.85710859298706 C 1.9596023559570312 9.094825983047485 1.930877685546875 9.508260428905487 2.164337158203125 9.781674981117249 C 2.164337158203125 9.781674981117249 2.164337158203125 9.781674981117249 2.164337158203125 9.781674981117249 C 2.397796630859375 10.05469399690628 2.8048629760742188 10.083667039871216 3.0735702514648438 9.846641838550568 C 3.0735702514648438 9.846641838550568 3.360015869140625 9.59379518032074 3.360015869140625 9.59379518032074 C 3.360015869140625 9.59379518032074 3.360015869140625 16.033721446990967 3.360015869140625 16.033721446990967 C 3.360015869140625 17.119271159172058 4.225761413574219 17.99904304742813 5.293609619140625 17.99904304742813 C 5.293609619140625 17.99904304742813 8.903190612792969 17.99904304742813 8.903190612792969 17.99904304742813 C 8.903190612792969 17.99904304742813 8.903190612792969 12.725355923175812 8.903190612792969 12.725355923175812 C 8.903190612792969 12.092596530914307 9.408218383789062 11.579289138317108 10.031120300292969 11.579289138317108 C 10.031120300292969 11.579289138317108 10.031120300292969 11.579289138317108 10.031120300292969 11.579289138317108 C 10.654136657714844 11.579289138317108 11.159049987792969 12.092596530914307 11.159049987792969 12.725355923175812 C 11.159049987792969 12.725355923175812 11.159049987792969 17.99904304742813 11.159049987792969 17.99904304742813 C 11.159049987792969 17.99904304742813 14.704086303710938 17.99904304742813 14.704086303710938 17.99904304742813 C 15.772048950195312 17.99904304742813 16.637794494628906 17.119271159172058 16.637794494628906 16.033721446990967 C 16.637794494628906 16.033721446990967 16.637794494628906 9.59379518032074 16.637794494628906 9.59379518032074 C 16.637794494628906 9.59379518032074 16.92412567138672 9.846641838550568 16.92412567138672 9.846641838550568 C 17.192947387695312 10.083963692188263 17.600013732910156 10.05469399690628 17.833473205566406 9.781674981117249 C 17.833473205566406 9.781674981117249 17.833473205566406 9.781674981117249 17.833473205566406 9.781674981117249 C 18.066818237304688 9.508260428905487 18.0382080078125 9.094825983047485 17.769386291503906 8.857306361198425 C 17.769386291503906 8.857306361198425 9.998847961425781 1.9991003274917603 9.998847961425781 1.9991003274917603 Z M 15.348617553710938 16.033721446990967 C 15.348617553710938 16.395637273788452 15.060111999511719 16.689224183559418 14.704086303710938 16.689224183559418 C 14.704086303710938 16.689224183559418 12.448226928710938 16.689224183559418 12.448226928710938 16.689224183559418 C 12.448226928710938 16.689224183559418 12.448226928710938 12.725355923175812 12.448226928710938 12.725355923175812 C 12.448226928710938 11.368863761425018 11.366073608398438 10.268975853919983 10.031120300292969 10.268975853919983 C 10.031120300292969 10.268975853919983 10.031120300292969 10.268975853919983 10.031120300292969 10.268975853919983 C 8.6961669921875 10.268975853919983 7.614013671875 11.368863761425018 7.614013671875 12.725355923175812 C 7.614013671875 12.725355923175812 7.614013671875 16.689224183559418 7.614013671875 16.689224183559418 C 7.614013671875 16.689224183559418 5.293609619140625 16.689224183559418 5.293609619140625 16.689224183559418 C 4.9376983642578125 16.689224183559418 4.649078369140625 16.395637273788452 4.649078369140625 16.033721446990967 C 4.649078369140625 16.033721446990967 4.649078369140625 8.455738008022308 4.649078369140625 8.455738008022308 C 4.649078369140625 8.455738008022308 9.998847961425781 3.7341208457946777 9.998847961425781 3.7341208457946777 C 9.998847961425781 3.7341208457946777 15.348617553710938 8.455738008022308 15.348617553710938 8.455738008022308 C 15.348617553710938 8.455738008022308 15.348617553710938 16.033721446990967 15.348617553710938 16.033721446990967 Z"/></g></svg>