<svg version="1.1" xmlns="http://www.w3.org/2000/svg" xmlns:xlink="http://www.w3.org/1999/xlink" width="22" height="17"><defs/><g><path fill="rgb(141,141,141)" stroke="none" paint-order="stroke fill markers" fill-rule="evenodd" d=" M 1.006866455078125 1.000330924987793 C 1.006866455078125 1.000330924987793 5.429435729980469 1.000330924987793 5.429435729980469 1.000330924987793 C 5.429435729980469 1.000330924987793 5.429435729980469 5.172080039978027 5.429435729980469 5.172080039978027 C 5.429435729980469 5.172080039978027 1.006866455078125 5.172080039978027 1.006866455078125 5.172080039978027 C 1.006866455078125 5.172080039978027 1.006866455078125 1.000330924987793 1.006866455078125 1.000330924987793 Z M 6.834999084472656 1.000330924987793 C 6.834999084472656 1.000330924987793 20.993858337402344 1.000330924987793 20.993858337402344 1.000330924987793 C 20.993858337402344 1.000330924987793 20.993858337402344 5.172080039978027 20.993858337402344 5.172080039978027 C 20.993858337402344 5.172080039978027 6.834999084472656 5.172080039978027 6.834999084472656 5.172080039978027 C 6.834999084472656 5.172080039978027 6.834999084472656 1.000330924987793 6.834999084472656 1.000330924987793 Z M 1.006866455078125 6.413499355316162 C 1.006866455078125 6.413499355316162 5.429435729980469 6.413499355316162 5.429435729980469 6.413499355316162 C 5.429435729980469 6.413499355316162 5.429435729980469 10.585248470306396 5.429435729980469 10.585248470306396 C 5.429435729980469 10.585248470306396 1.006866455078125 10.585248470306396 1.006866455078125 10.585248470306396 C 1.006866455078125 10.585248470306396 1.006866455078125 6.413499355316162 1.006866455078125 6.413499355316162 Z M 6.834999084472656 6.413499355316162 C 6.834999084472656 6.413499355316162 20.993858337402344 6.413499355316162 20.993858337402344 6.413499355316162 C 20.993858337402344 6.413499355316162 20.993858337402344 10.585248470306396 20.993858337402344 10.585248470306396 C 20.993858337402344 10.585248470306396 6.834999084472656 10.585248470306396 6.834999084472656 10.585248470306396 C 6.834999084472656 10.585248470306396 6.834999084472656 6.413499355316162 6.834999084472656 6.413499355316162 Z M 1.006866455078125 11.826667785644531 C 1.006866455078125 11.826667785644531 5.429435729980469 11.826667785644531 5.429435729980469 11.826667785644531 C 5.429435729980469 11.826667785644531 5.429435729980469 15.998416900634766 5.429435729980469 15.998416900634766 C 5.429435729980469 15.998416900634766 1.006866455078125 15.998416900634766 1.006866455078125 15.998416900634766 C 1.006866455078125 15.998416900634766 1.006866455078125 11.826667785644531 1.006866455078125 11.826667785644531 Z M 6.834999084472656 11.826667785644531 C 6.834999084472656 11.826667785644531 20.993858337402344 11.826667785644531 20.993858337402344 11.826667785644531 C 20.993858337402344 11.826667785644531 20.993858337402344 15.998416900634766 20.993858337402344 15.998416900634766 C 20.993858337402344 15.998416900634766 6.834999084472656 15.998416900634766 6.834999084472656 15.998416900634766 C 6.834999084472656 15.998416900634766 6.834999084472656 11.826667785644531 6.834999084472656 11.826667785644531 Z"/></g></svg>