<svg version="1.1" xmlns="http://www.w3.org/2000/svg" xmlns:xlink="http://www.w3.org/1999/xlink" width="16" height="23"><defs/><g><path fill="rgb(254,62,87)" stroke="none" paint-order="stroke fill markers" fill-rule="evenodd" d=" M 7.997367858886719 1.0045251846313477 C 4.139106750488281 1.0045251846313477 1.0001068115234375 4.251452445983887 1.0001068115234375 8.242402076721191 C 1.0001068115234375 13.195351600646973 7.261970520019531 20.466479301452637 7.528617858886719 20.77355194091797 C 7.779014587402344 21.062009811401367 8.216178894042969 21.061583518981934 8.466117858886719 20.77355194091797 C 8.732765197753906 20.466479301452637 14.994514465332031 13.195351600646973 14.994514465332031 8.242402076721191 C 14.994514465332031 4.251452445983887 11.855628967285156 1.0045251846313477 7.997367858886719 1.0045251846313477 Z M 7.997367858886719 11.883934020996094 C 6.056221008300781 11.883934020996094 4.476936340332031 10.250381469726562 4.476936340332031 8.242402076721191 C 4.476936340332031 6.23442268371582 6.056221008300781 4.600870132446289 7.997367858886719 4.600870132446289 C 9.938514709472656 4.600870132446289 11.517799377441406 6.23442268371582 11.517799377441406 8.242402076721191 C 11.517799377441406 10.250381469726562 9.938514709472656 11.883934020996094 7.997367858886719 11.883934020996094 Z"/></g></svg>