<svg width="27" height="23">
<path fill="rgb(41,40,45)" stroke="none" paint-order="stroke fill markers" fill-rule="evenodd" d=" M 18.893882751464844 1.9986991882324219 C 16.469566345214844 1.9986991882324219 14.9345703125 3.423220932483673 14.073860168457031 4.618175983428955 C 13.8505859375 4.9286951422691345 13.660614013671875 5.239214301109314 13.501083374023438 5.532012522220612 C 13.341552734375 5.239214301109314 13.151695251464844 4.9286951422691345 12.928421020507812 4.618175983428955 C 12.067596435546875 3.423220932483673 10.53271484375 1.9986991882324219 8.108283996582031 1.9986991882324219 C 6.38446044921875 1.9986991882324219 4.810096740722656 2.696662485599518 3.6750717163085938 3.963709533214569 C 2.5925750732421875 5.17235803604126 1.9964523315429688 6.7910045981407166 1.9964523315429688 8.52121251821518 C 1.9964523315429688 10.405270397663116 2.743865966796875 12.156823992729187 4.348785400390625 14.034437894821167 C 5.7831878662109375 15.713093996047974 7.846672058105469 17.443301916122437 10.236198425292969 19.44657337665558 C 11.126663208007812 20.1932692527771 12.047340393066406 20.9653382897377 13.027641296386719 21.809499323368073 C 13.027641296386719 21.809499323368073 13.057052612304688 21.83406698703766 13.057052612304688 21.83406698703766 C 13.184196472167969 21.944017350673676 13.342582702636719 21.99879115819931 13.501083374023438 21.99879115819931 C 13.659584045410156 21.99879115819931 13.817970275878906 21.944017350673676 13.945114135742188 21.83406698703766 C 13.945114135742188 21.83406698703766 13.974525451660156 21.809499323368073 13.974525451660156 21.809499323368073 C 14.954826354980469 20.9653382897377 15.875617980957031 20.1932692527771 16.766197204589844 19.44657337665558 C 19.155609130859375 17.443301916122437 21.219093322753906 15.713093996047974 22.65349578857422 14.034437894821167 C 24.25830078125 12.156823992729187 25.005828857421875 10.405270397663116 25.005828857421875 8.52121251821518 C 25.005828857421875 6.7910045981407166 24.409591674804688 5.17235803604126 23.326980590820312 3.963709533214569 C 22.192184448242188 2.6962597370147705 20.617820739746094 1.9986991882324219 18.893882751464844 1.9986991882324219 Z M 15.891639709472656 18.43728542327881 C 15.12408447265625 19.08047491312027 14.334098815917969 19.742996335029602 13.501083374023438 20.4554585814476 C 12.668182373046875 19.742996335029602 11.878196716308594 19.080877661705017 11.110527038574219 18.43728542327881 C 6.434013366699219 14.516125202178955 3.3445663452148438 11.926049053668976 3.3445663452148438 8.52121251821518 C 3.3445663452148438 7.114008963108063 3.8212127685546875 5.806284308433533 4.686614990234375 4.840090453624725 C 5.561973571777344 3.8630223870277405 6.777107238769531 3.3253530263900757 8.108283996582031 3.3253530263900757 C 9.956619262695312 3.3253530263900757 11.151382446289062 4.44499409198761 11.828300476074219 5.385009288787842 C 12.435295104980469 6.227962076663971 12.752067565917969 7.078164339065552 12.860214233398438 7.403987944126129 C 12.950508117675781 7.677454233169556 13.209259033203125 7.861913084983826 13.501083374023438 7.861913084983826 C 13.79290771484375 7.861913084983826 14.051658630371094 7.677454233169556 14.142066955566406 7.403987944126129 C 14.250099182128906 7.078164339065552 14.566871643066406 6.227962076663971 15.173980712890625 5.385009288787842 C 15.850784301757812 4.44499409198761 17.04566192626953 3.3253530263900757 18.893882751464844 3.3253530263900757 C 20.225059509277344 3.3253530263900757 21.4403076171875 3.8630223870277405 22.3155517578125 4.840090453624725 C 23.181068420410156 5.806284308433533 23.65760040283203 7.114008963108063 23.65760040283203 8.52121251821518 C 23.65760040283203 11.926049053668976 20.568153381347656 14.516125202178955 15.891639709472656 18.43728542327881 Z"/></svg>