<svg version="1.1" xmlns="http://www.w3.org/2000/svg" xmlns:xlink="http://www.w3.org/1999/xlink" width="20" height="24"><defs/><g><path fill="rgb(254,62,87)" stroke="none" paint-order="stroke fill markers" fill-rule="evenodd" d=" M 1.0001373291015625 9.937787055969238 C 1.0001373291015625 9.937787055969238 1.0001373291015625 20.246390342712402 1.0001373291015625 20.246390342712402 C 1.0001373291015625 20.517086029052734 1.0682296752929688 20.770445823669434 1.1804962158203125 20.999791145324707 C 1.1804962158203125 20.999791145324707 6.751251220703125 15.556889533996582 6.751251220703125 15.556889533996582 C 4.616584777832031 13.471182823181152 3.2196044921875 12.10633659362793 1.0001373291015625 9.937787055969238 Z M 13.247718811035156 15.556889533996582 C 13.247718811035156 15.556889533996582 18.81847381591797 20.999791145324707 18.81847381591797 20.999791145324707 C 18.930740356445312 20.770445823669434 18.998947143554688 20.517086029052734 18.998947143554688 20.246390342712402 C 18.998947143554688 20.246390342712402 18.998947143554688 9.937787055969238 18.998947143554688 9.937787055969238 C 16.868972778320312 12.018804550170898 15.405845642089844 13.448305130004883 13.247718811035156 15.556889533996582 Z M 9.999542236328125 7.936628341674805 C 9.669036865234375 7.936628341674805 9.399528503417969 8.199366569519043 9.399528503417969 8.522780418395996 C 9.399528503417969 8.84619426727295 9.669036865234375 9.108932495117188 9.999542236328125 9.108932495117188 C 10.414962768554688 9.108932495117188 10.525169372558594 8.83056354522705 10.591087341308594 8.48242473602295 C 10.568656921386719 8.178762435913086 10.315284729003906 7.936628341674805 9.999542236328125 7.936628341674805 Z M 12.150917053222656 16.143041610717773 C 12.150917053222656 16.143041610717773 7.848052978515625 16.143041610717773 7.848052978515625 16.143041610717773 C 7.848052978515625 16.143041610717773 2.028961181640625 21.828645706176758 2.028961181640625 21.828645706176758 C 2.2635650634765625 21.938344955444336 2.5230026245117188 22.004846572875977 2.7999496459960938 22.004846572875977 C 2.7999496459960938 22.004846572875977 17.199020385742188 22.004846572875977 17.199020385742188 22.004846572875977 C 17.47608184814453 22.004846572875977 17.73540496826172 21.938344955444336 17.970123291015625 21.828645706176758 C 17.970123291015625 21.828645706176758 12.150917053222656 16.143041610717773 12.150917053222656 16.143041610717773 Z M 3.39996337890625 10.624828338623047 C 3.39996337890625 10.624828338623047 3.39996337890625 7.107631683349609 3.39996337890625 7.107631683349609 C 3.39996337890625 7.107631683349609 1.6001510620117188 8.866230010986328 1.6001510620117188 8.866230010986328 C 1.6001510620117188 8.866230010986328 3.39996337890625 10.624828338623047 3.39996337890625 10.624828338623047 Z M 18.39893341064453 8.866230010986328 C 18.39893341064453 8.866230010986328 16.59912109375 7.107631683349609 16.59912109375 7.107631683349609 C 16.59912109375 7.107631683349609 16.59912109375 10.624828338623047 16.59912109375 10.624828338623047 C 16.59912109375 10.624828338623047 18.39893341064453 8.866230010986328 18.39893341064453 8.866230010986328 Z M 12.150917053222656 14.97073745727539 C 12.150917053222656 14.97073745727539 15.399093627929688 11.79713249206543 15.399093627929688 11.79713249206543 C 15.399093627929688 11.79713249206543 15.399093627929688 2.747654914855957 15.399093627929688 2.747654914855957 C 15.399093627929688 2.3328723907470703 15.054969787597656 1.9966697692871094 14.630393981933594 1.9966697692871094 C 14.630393981933594 1.9966697692871094 5.256080627441406 1.9966697692871094 5.256080627441406 1.9966697692871094 C 4.893646240234375 1.9966697692871094 4.599876403808594 2.2837066650390625 4.599876403808594 2.6378135681152344 C 4.599876403808594 2.6378135681152344 4.599876403808594 11.79713249206543 4.599876403808594 11.79713249206543 C 4.599876403808594 11.79713249206543 7.848052978515625 14.97073745727539 7.848052978515625 14.97073745727539 C 7.848052978515625 14.97073745727539 12.150917053222656 14.97073745727539 12.150917053222656 14.97073745727539 Z M 5.7997894287109375 8.522780418395996 C 5.7997894287109375 6.260446548461914 7.684059143066406 4.419573783874512 9.999542236328125 4.419573783874512 C 12.315025329589844 4.419573783874512 14.199295043945312 6.260446548461914 14.199295043945312 8.522780418395996 C 14.199295043945312 10.029582023620605 12.365379333496094 10.853321075439453 11.198997497558594 9.824251174926758 C 10.87982177734375 10.10531997680664 10.461883544921875 10.281378746032715 9.999542236328125 10.281378746032715 C 9.006996154785156 10.281378746032715 8.199615478515625 9.492453575134277 8.199615478515625 8.522780418395996 C 8.199615478515625 7.553107261657715 9.006996154785156 6.764182090759277 9.999542236328125 6.764182090759277 C 10.991973876953125 6.764182090759277 11.799354553222656 7.553107261657715 11.799354553222656 8.522780418395996 C 11.799354553222656 9.297637939453125 12.999267578125 9.297637939453125 12.999267578125 8.522780418395996 C 12.999267578125 6.906705856323242 11.654129028320312 5.5918779373168945 9.999542236328125 5.5918779373168945 C 8.344955444335938 5.5918779373168945 6.999702453613281 6.906705856323242 6.999702453613281 8.522780418395996 C 6.999702453613281 9.525704383850098 7.517662048339844 10.449053764343262 8.38592529296875 10.992860794067383 C 9.276504516601562 11.549314498901367 10.379142761230469 11.601890563964844 11.413917541503906 11.13765811920166 C 12.129173278808594 10.812965393066406 12.637977600097656 11.878270149230957 11.915397644042969 12.202394485473633 C 10.5401611328125 12.820518493652344 9.012718200683594 12.776894569396973 7.739105224609375 11.979727745056152 C 6.525115966796875 11.21950626373291 5.7997894287109375 9.927556037902832 5.7997894287109375 8.522780418395996 Z"/></g></svg>