<svg version="1.1" xmlns="http://www.w3.org/2000/svg" xmlns:xlink="http://www.w3.org/1999/xlink" width="24" height="24"><defs/><g><path fill="rgb(254,62,87)" stroke="none" paint-order="stroke fill markers" fill-rule="evenodd" d=" M 21.47662353515625 16.762240409851074 C 21.47662353515625 16.762240409851074 18.992111206054688 14.2749662399292 18.992111206054688 14.2749662399292 C 18.329269409179688 13.611513137817383 17.171127319335938 13.610376358032227 16.50714111328125 14.2749662399292 C 16.50714111328125 14.2749662399292 16.092864990234375 14.689606666564941 16.092864990234375 14.689606666564941 C 16.092864990234375 14.689606666564941 21.062461853027344 19.66344451904297 21.062461853027344 19.66344451904297 C 21.062461853027344 19.66344451904297 21.47662353515625 19.24894618988037 21.47662353515625 19.24894618988037 C 22.164527893066406 18.560341835021973 22.16223907470703 17.44729232788086 21.47662353515625 16.762240409851074 Z M 13.495285034179688 15.40549373626709 C 13.495285034179688 15.40549373626709 8.583023071289062 10.485368728637695 8.583023071289062 10.485368728637695 C 8.104087829589844 10.006073951721191 8.088066101074219 9.25906753540039 8.492958068847656 8.737143516540527 C 8.492958068847656 8.737143516540527 3.5348052978515625 3.7746734619140625 3.5348052978515625 3.7746734619140625 C 1.40185546875 6.263226509094238 1.48516845703125 10.012894630432129 3.8393325805664062 12.36929702758789 C 3.8393325805664062 12.36929702758789 11.613075256347656 20.153396606445312 11.613075256347656 20.153396606445312 C 13.872138977050781 22.41430950164795 17.572586059570312 22.714277267456055 20.200035095214844 20.458053588867188 C 20.200035095214844 20.458053588867188 15.241653442382812 15.495441436767578 15.241653442382812 15.495441436767578 C 14.718887329101562 15.900845527648926 13.973075866699219 15.88464641571045 13.495285034179688 15.40549373626709 Z M 9.712554931640625 7.470770835876465 C 10.400459289550781 6.782308578491211 10.398170471191406 5.669259071350098 9.712554931640625 4.984065055847168 C 9.712554931640625 4.984065055847168 7.2280426025390625 2.496790885925293 7.2280426025390625 2.496790885925293 C 6.5652008056640625 1.8333377838134766 5.406944274902344 1.8322010040283203 4.742958068847656 2.496790885925293 C 4.742958068847656 2.496790885925293 4.328681945800781 2.9115734100341797 4.328681945800781 2.9115734100341797 C 4.328681945800781 2.9115734100341797 9.298393249511719 7.8852691650390625 9.298393249511719 7.8852691650390625 C 9.298393249511719 7.8852691650390625 9.712554931640625 7.470770835876465 9.712554931640625 7.470770835876465 Z"/></g></svg>