<svg version="1.1" xmlns="http://www.w3.org/2000/svg" xmlns:xlink="http://www.w3.org/1999/xlink" width="23" height="24"><defs/><g><path fill="rgb(41,40,45)" stroke="none" paint-order="stroke fill markers" fill-rule="evenodd" d=" M 20.8919677734375 20.696702420711517 C 20.8919677734375 20.696702420711517 15.082145690917969 14.886651337146759 15.082145690917969 14.886651337146759 C 16.184097290039062 13.525763869285583 16.847396850585938 11.796361446380615 16.847396850585938 9.91351181268692 C 16.847396850585938 5.5477171540260315 13.295951843261719 1.99668288230896 8.930831909179688 1.99668288230896 C 4.565483093261719 1.99668288230896 1.0140380859375 5.5477171540260315 1.0140380859375 9.91351181268692 C 1.0140380859375 14.278500974178314 4.565483093261719 17.829937994480133 8.930831909179688 17.829937994480133 C 10.813728332519531 17.829937994480133 12.54327392578125 17.166611075401306 13.903861999511719 16.0650936961174 C 13.903861999511719 16.0650936961174 19.71356964111328 21.874742031097412 19.71356964111328 21.874742031097412 C 19.876304626464844 22.037855207920074 20.140090942382812 22.037855207920074 20.302940368652344 21.874742031097412 C 20.302940368652344 21.874742031097412 20.8919677734375 21.28552085161209 20.8919677734375 21.28552085161209 C 21.05481719970703 21.122810423374176 21.05481719970703 20.859412848949432 20.8919677734375 20.696702420711517 Z M 8.930831909179688 16.163364350795746 C 5.484214782714844 16.163364350795746 2.680755615234375 13.360234200954437 2.680755615234375 9.91351181268692 C 2.680755615234375 6.46719217300415 5.484214782714844 3.663256525993347 8.930831909179688 3.663256525993347 C 12.377220153808594 3.663256525993347 15.180793762207031 6.46719217300415 15.180793762207031 9.91351181268692 C 15.180793762207031 13.360234200954437 12.377220153808594 16.163364350795746 8.930831909179688 16.163364350795746 Z"/></g></svg>