<svg version="1.1" xmlns="http://www.w3.org/2000/svg" xmlns:xlink="http://www.w3.org/1999/xlink" width="23" height="24"><defs/><g><path fill="rgb(41,40,45)" stroke="none" paint-order="stroke fill markers" fill-rule="evenodd" d=" M 20.8919677734375 20.696303367614746 C 20.8919677734375 20.696303367614746 15.082145690917969 14.886423468589783 15.082145690917969 14.886423468589783 C 16.184097290039062 13.525240540504456 16.847396850585938 11.796112179756165 16.847396850585938 9.913135290145874 C 16.847396850585938 5.547495007514954 13.295951843261719 1.9964988231658936 8.930831909179688 1.9964988231658936 C 4.565483093261719 1.9964988231658936 1.0140380859375 5.547495007514954 1.0140380859375 9.913135290145874 C 1.0140380859375 14.278345227241516 4.565483093261719 17.829556584358215 8.930831909179688 17.829556584358215 C 10.813728332519531 17.829556584358215 12.54327392578125 17.166394114494324 13.903861999511719 16.064709544181824 C 13.903861999511719 16.064709544181824 19.71356964111328 21.874589443206787 19.71356964111328 21.874589443206787 C 19.876304626464844 22.03747522830963 20.140090942382812 22.03747522830963 20.302940368652344 21.874589443206787 C 20.302940368652344 21.874589443206787 20.8919677734375 21.285231232643127 20.8919677734375 21.285231232643127 C 21.05481719970703 21.122560620307922 21.05481719970703 20.85897397994995 20.8919677734375 20.696303367614746 Z M 8.930831909179688 16.16304349899292 C 5.484214782714844 16.16304349899292 2.680755615234375 13.35998785495758 2.680755615234375 9.913135290145874 C 2.680755615234375 6.466713070869446 5.484214782714844 3.663011908531189 8.930831909179688 3.663011908531189 C 12.377220153808594 3.663011908531189 15.180793762207031 6.466713070869446 15.180793762207031 9.913135290145874 C 15.180793762207031 13.35998785495758 12.377220153808594 16.16304349899292 8.930831909179688 16.16304349899292 Z"/></g></svg>