<svg version="1.1" xmlns="http://www.w3.org/2000/svg" xmlns:xlink="http://www.w3.org/1999/xlink" width="18" height="18"><defs/><g><path fill="rgb(255,255,255)" stroke="none" paint-order="stroke fill markers" fill-rule="evenodd" d=" M 13.007606506347656 11.681383609771729 C 13.745635986328125 10.673501014709473 14.187263488769531 9.435224533081055 14.187263488769531 8.093234539031982 C 14.187263488769531 4.733061790466309 11.453498840332031 1.9992799758911133 8.093513488769531 1.9992799758911133 C 4.733528137207031 1.9992799758911133 1.9997634887695312 4.733061790466309 1.9997634887695312 8.093234539031982 C 1.9997634887695312 11.453165531158447 4.733528137207031 14.186705589294434 8.093513488769531 14.186705589294434 C 9.435676574707031 14.186705589294434 10.673927307128906 13.74501657485962 11.681922912597656 13.007175922393799 C 11.681922912597656 13.007175922393799 15.674079895019531 16.999541759490967 15.674079895019531 16.999541759490967 C 15.674079895019531 16.999541759490967 16.99976348876953 15.673265933990479 16.99976348876953 15.673265933990479 C 16.99976348876953 15.673265933990479 13.007606506347656 11.681383609771729 13.007606506347656 11.681383609771729 C 13.007606506347656 11.681383609771729 13.007606506347656 11.681383609771729 13.007606506347656 11.681383609771729 Z M 8.093513488769531 12.31164264678955 C 5.767158508300781 12.31164264678955 3.8747634887695312 10.41941499710083 3.8747634887695312 8.093234539031982 C 3.8747634887695312 5.766570568084717 5.767158508300781 3.874101161956787 8.093513488769531 3.874101161956787 C 10.419868469238281 3.874101161956787 12.312263488769531 5.766570568084717 12.312263488769531 8.093234539031982 C 12.312263488769531 10.41941499710083 10.419868469238281 12.31164264678955 8.093513488769531 12.31164264678955 C 8.093513488769531 12.31164264678955 8.093513488769531 12.31164264678955 8.093513488769531 12.31164264678955 Z M 8.093513488769531 12.31164264678955 C 8.093513488769531 12.31164264678955 8.093513488769531 12.31164264678955 8.093513488769531 12.31164264678955"/></g></svg>