<svg version="1.1" xmlns="http://www.w3.org/2000/svg" xmlns:xlink="http://www.w3.org/1999/xlink" width="19" height="19"><defs/><g><path fill="rgb(254,62,87)" stroke="none" paint-order="stroke fill markers" fill-rule="evenodd" d=" M 15.656761169433594 12.342801809310913 C 14.785408020019531 11.471661806106567 13.748344421386719 10.826687335968018 12.616752624511719 10.435958623886108 C 13.828681945800781 9.601170539855957 14.624961853027344 8.204342603683472 14.624961853027344 6.624666690826416 C 14.624961853027344 4.0743727684021 12.550148010253906 1.9997012615203857 9.999946594238281 1.9997012615203857 C 7.449745178222656 1.9997012615203857 5.374931335449219 4.0743727684021 5.374931335449219 6.624666690826416 C 5.374931335449219 8.204342603683472 6.1710968017578125 9.601170539855957 7.383140563964844 10.435958623886108 C 6.251548767089844 10.826687335968018 5.2143707275390625 11.471661806106567 4.343017578125 12.342801809310913 C 2.8320541381835938 13.853909730911255 1.9999542236328125 15.862625360488892 1.9999542236328125 17.999552249908447 C 1.9999542236328125 17.999552249908447 3.2498779296875 17.999552249908447 3.2498779296875 17.999552249908447 C 3.2498779296875 14.277725219726562 6.277984619140625 11.249632120132446 9.999946594238281 11.249632120132446 C 13.721908569335938 11.249632120132446 16.749900817871094 14.277725219726562 16.749900817871094 17.999552249908447 C 16.749900817871094 17.999552249908447 17.99993896484375 17.999552249908447 17.99993896484375 17.999552249908447 C 17.99993896484375 15.862625360488892 17.16783905029297 13.853909730911255 15.656761169433594 12.342801809310913 Z M 6.624969482421875 6.624666690826416 C 6.624969482421875 4.763535499572754 8.138908386230469 3.2495977878570557 9.999946594238281 3.2495977878570557 C 11.860870361328125 3.2495977878570557 13.374923706054688 4.763535499572754 13.374923706054688 6.624666690826416 C 13.374923706054688 8.485580205917358 11.860870361328125 9.999517917633057 9.999946594238281 9.999517917633057 C 8.138908386230469 9.999517917633057 6.624969482421875 8.485580205917358 6.624969482421875 6.624666690826416 Z"/></g></svg>