<svg version="1.1" xmlns="http://www.w3.org/2000/svg" xmlns:xlink="http://www.w3.org/1999/xlink" width="23" height="23"><defs/><g><path fill="rgb(41,40,45)" stroke="none" paint-order="stroke fill markers" fill-rule="evenodd" d=" M 19.070884704589844 14.927731692790985 C 17.98175048828125 13.8382967710495 16.68536376953125 13.032396852970123 15.2708740234375 12.544265568256378 C 16.785842895507812 11.500743985176086 17.78113555908203 9.754828870296478 17.78113555908203 7.7801525592803955 C 17.78113555908203 4.591994762420654 15.187675476074219 1.9986966252326965 11.999809265136719 1.9986966252326965 C 8.812057495117188 1.9986966252326965 6.218597412109375 4.591994762420654 6.218597412109375 7.7801525592803955 C 6.218597412109375 9.754828870296478 7.213890075683594 11.500743985176086 8.728858947753906 12.544265568256378 C 7.314369201660156 13.032396852970123 6.017982482910156 13.8382967710495 4.9288482666015625 14.927731692790985 C 3.0400009155273438 16.81662255525589 1.999847412109375 19.327759981155396 1.999847412109375 21.998385846614838 C 1.999847412109375 21.998385846614838 3.5623092651367188 21.998385846614838 3.5623092651367188 21.998385846614838 C 3.5623092651367188 17.34623694419861 7.347328186035156 13.561608493328094 11.999809265136719 13.561608493328094 C 16.65229034423828 13.561608493328094 20.43730926513672 17.34623694419861 20.43730926513672 21.998385846614838 C 20.43730926513672 21.998385846614838 21.99988555908203 21.998385846614838 21.99988555908203 21.998385846614838 C 21.99988555908203 19.327759981155396 20.959617614746094 16.81662255525589 19.070884704589844 14.927731692790985 Z M 7.781059265136719 7.7801525592803955 C 7.781059265136719 5.45347398519516 9.673683166503906 3.5613611340522766 11.999809265136719 3.5613611340522766 C 14.3260498046875 3.5613611340522766 16.21855926513672 5.45347398519516 16.21855926513672 7.7801525592803955 C 16.21855926513672 10.106428384780884 14.3260498046875 11.998943984508514 11.999809265136719 11.998943984508514 C 9.673683166503906 11.998943984508514 7.781059265136719 10.106428384780884 7.781059265136719 7.7801525592803955 Z"/></g></svg>